<?xml version="1.0" encoding="utf-8" standalone="no"?>
<!DOCTYPE svg PUBLIC "-//W3C//DTD SVG 1.1//EN"
  "http://www.w3.org/Graphics/SVG/1.1/DTD/svg11.dtd">
<svg height="432pt" version="1.1" viewBox="0 0 432 432" width="432pt" xmlns="http://www.w3.org/2000/svg" xmlns:xlink="http://www.w3.org/1999/xlink">
 <metadata>
  <rdf:RDF xmlns:cc="http://creativecommons.org/ns#" xmlns:dc="http://purl.org/dc/elements/1.1/" xmlns:rdf="http://www.w3.org/1999/02/22-rdf-syntax-ns#">
   <cc:Work>
    <dc:type rdf:resource="http://purl.org/dc/dcmitype/StillImage"/>
    <dc:date>2024-09-06T15:42:22.471507</dc:date>
    <dc:format>image/svg+xml</dc:format>
    <dc:creator>
     <cc:Agent>
      <dc:title>Matplotlib v3.4.1, https://matplotlib.org/</dc:title>
     </cc:Agent>
    </dc:creator>
   </cc:Work>
  </rdf:RDF>
 </metadata>
 <defs>
  <style type="text/css">*{stroke-linecap:butt;stroke-linejoin:round;}</style>
 </defs>
 <g id="figure_1">
  <g id="patch_1">
   <path d="M 0 432 
L 432 432 
L 432 0 
L 0 0 
z
" style="fill:#ffffff;"/>
  </g>
  <g id="axes_1">
   <g id="patch_2">
    <path d="M 54 384.48 
L 388.8 384.48 
L 388.8 51.84 
L 54 51.84 
z
" style="fill:#ffffff;"/>
   </g>
   <g id="matplotlib.axis_1">
    <g id="xtick_1">
     <g id="line2d_1">
      <defs>
       <path d="M 0 0 
L 0 3.5 
" id="m294e18fb7f" style="stroke:#000000;stroke-width:0.8;"/>
      </defs>
      <g>
       <use style="stroke:#000000;stroke-width:0.8;" x="54" xlink:href="#m294e18fb7f" y="384.48"/>
      </g>
     </g>
     <g id="text_1">
      <!-- −3 -->
      <g transform="translate(46.628906 399.078438)scale(0.1 -0.1)">
       <defs>
        <path d="M 678 2272 
L 4684 2272 
L 4684 1741 
L 678 1741 
L 678 2272 
z
" id="DejaVuSans-2212" transform="scale(0.015625)"/>
        <path d="M 2597 2516 
Q 3050 2419 3304 2112 
Q 3559 1806 3559 1356 
Q 3559 666 3084 287 
Q 2609 -91 1734 -91 
Q 1441 -91 1130 -33 
Q 819 25 488 141 
L 488 750 
Q 750 597 1062 519 
Q 1375 441 1716 441 
Q 2309 441 2620 675 
Q 2931 909 2931 1356 
Q 2931 1769 2642 2001 
Q 2353 2234 1838 2234 
L 1294 2234 
L 1294 2753 
L 1863 2753 
Q 2328 2753 2575 2939 
Q 2822 3125 2822 3475 
Q 2822 3834 2567 4026 
Q 2313 4219 1838 4219 
Q 1578 4219 1281 4162 
Q 984 4106 628 3988 
L 628 4550 
Q 988 4650 1302 4700 
Q 1616 4750 1894 4750 
Q 2613 4750 3031 4423 
Q 3450 4097 3450 3541 
Q 3450 3153 3228 2886 
Q 3006 2619 2597 2516 
z
" id="DejaVuSans-33" transform="scale(0.015625)"/>
       </defs>
       <use xlink:href="#DejaVuSans-2212"/>
       <use x="83.789062" xlink:href="#DejaVuSans-33"/>
      </g>
     </g>
    </g>
    <g id="xtick_2">
     <g id="line2d_2">
      <g>
       <use style="stroke:#000000;stroke-width:0.8;" x="109.8" xlink:href="#m294e18fb7f" y="384.48"/>
      </g>
     </g>
     <g id="text_2">
      <!-- −2 -->
      <g transform="translate(102.428906 399.078438)scale(0.1 -0.1)">
       <defs>
        <path d="M 1228 531 
L 3431 531 
L 3431 0 
L 469 0 
L 469 531 
Q 828 903 1448 1529 
Q 2069 2156 2228 2338 
Q 2531 2678 2651 2914 
Q 2772 3150 2772 3378 
Q 2772 3750 2511 3984 
Q 2250 4219 1831 4219 
Q 1534 4219 1204 4116 
Q 875 4013 500 3803 
L 500 4441 
Q 881 4594 1212 4672 
Q 1544 4750 1819 4750 
Q 2544 4750 2975 4387 
Q 3406 4025 3406 3419 
Q 3406 3131 3298 2873 
Q 3191 2616 2906 2266 
Q 2828 2175 2409 1742 
Q 1991 1309 1228 531 
z
" id="DejaVuSans-32" transform="scale(0.015625)"/>
       </defs>
       <use xlink:href="#DejaVuSans-2212"/>
       <use x="83.789062" xlink:href="#DejaVuSans-32"/>
      </g>
     </g>
    </g>
    <g id="xtick_3">
     <g id="line2d_3">
      <g>
       <use style="stroke:#000000;stroke-width:0.8;" x="165.6" xlink:href="#m294e18fb7f" y="384.48"/>
      </g>
     </g>
     <g id="text_3">
      <!-- −1 -->
      <g transform="translate(158.228906 399.078438)scale(0.1 -0.1)">
       <defs>
        <path d="M 794 531 
L 1825 531 
L 1825 4091 
L 703 3866 
L 703 4441 
L 1819 4666 
L 2450 4666 
L 2450 531 
L 3481 531 
L 3481 0 
L 794 0 
L 794 531 
z
" id="DejaVuSans-31" transform="scale(0.015625)"/>
       </defs>
       <use xlink:href="#DejaVuSans-2212"/>
       <use x="83.789062" xlink:href="#DejaVuSans-31"/>
      </g>
     </g>
    </g>
    <g id="xtick_4">
     <g id="line2d_4">
      <g>
       <use style="stroke:#000000;stroke-width:0.8;" x="221.4" xlink:href="#m294e18fb7f" y="384.48"/>
      </g>
     </g>
     <g id="text_4">
      <!-- 0 -->
      <g transform="translate(218.21875 399.078438)scale(0.1 -0.1)">
       <defs>
        <path d="M 2034 4250 
Q 1547 4250 1301 3770 
Q 1056 3291 1056 2328 
Q 1056 1369 1301 889 
Q 1547 409 2034 409 
Q 2525 409 2770 889 
Q 3016 1369 3016 2328 
Q 3016 3291 2770 3770 
Q 2525 4250 2034 4250 
z
M 2034 4750 
Q 2819 4750 3233 4129 
Q 3647 3509 3647 2328 
Q 3647 1150 3233 529 
Q 2819 -91 2034 -91 
Q 1250 -91 836 529 
Q 422 1150 422 2328 
Q 422 3509 836 4129 
Q 1250 4750 2034 4750 
z
" id="DejaVuSans-30" transform="scale(0.015625)"/>
       </defs>
       <use xlink:href="#DejaVuSans-30"/>
      </g>
     </g>
    </g>
    <g id="xtick_5">
     <g id="line2d_5">
      <g>
       <use style="stroke:#000000;stroke-width:0.8;" x="277.2" xlink:href="#m294e18fb7f" y="384.48"/>
      </g>
     </g>
     <g id="text_5">
      <!-- 1 -->
      <g transform="translate(274.01875 399.078438)scale(0.1 -0.1)">
       <use xlink:href="#DejaVuSans-31"/>
      </g>
     </g>
    </g>
    <g id="xtick_6">
     <g id="line2d_6">
      <g>
       <use style="stroke:#000000;stroke-width:0.8;" x="333" xlink:href="#m294e18fb7f" y="384.48"/>
      </g>
     </g>
     <g id="text_6">
      <!-- 2 -->
      <g transform="translate(329.81875 399.078438)scale(0.1 -0.1)">
       <use xlink:href="#DejaVuSans-32"/>
      </g>
     </g>
    </g>
    <g id="xtick_7">
     <g id="line2d_7">
      <g>
       <use style="stroke:#000000;stroke-width:0.8;" x="388.8" xlink:href="#m294e18fb7f" y="384.48"/>
      </g>
     </g>
     <g id="text_7">
      <!-- 3 -->
      <g transform="translate(385.61875 399.078438)scale(0.1 -0.1)">
       <use xlink:href="#DejaVuSans-33"/>
      </g>
     </g>
    </g>
    <g id="text_8">
     <!-- X -->
     <g transform="translate(217.975 412.756563)scale(0.1 -0.1)">
      <defs>
       <path d="M 403 4666 
L 1081 4666 
L 2241 2931 
L 3406 4666 
L 4084 4666 
L 2584 2425 
L 4184 0 
L 3506 0 
L 2194 1984 
L 872 0 
L 191 0 
L 1856 2491 
L 403 4666 
z
" id="DejaVuSans-58" transform="scale(0.015625)"/>
      </defs>
      <use xlink:href="#DejaVuSans-58"/>
     </g>
    </g>
   </g>
   <g id="matplotlib.axis_2">
    <g id="ytick_1">
     <g id="line2d_8">
      <defs>
       <path d="M 0 0 
L -3.5 0 
" id="ma11b4b1f10" style="stroke:#000000;stroke-width:0.8;"/>
      </defs>
      <g>
       <use style="stroke:#000000;stroke-width:0.8;" x="54" xlink:href="#ma11b4b1f10" y="384.48"/>
      </g>
     </g>
     <g id="text_9">
      <!-- −3 -->
      <g transform="translate(32.257812 388.279219)scale(0.1 -0.1)">
       <use xlink:href="#DejaVuSans-2212"/>
       <use x="83.789062" xlink:href="#DejaVuSans-33"/>
      </g>
     </g>
    </g>
    <g id="ytick_2">
     <g id="line2d_9">
      <g>
       <use style="stroke:#000000;stroke-width:0.8;" x="54" xlink:href="#ma11b4b1f10" y="329.04"/>
      </g>
     </g>
     <g id="text_10">
      <!-- −2 -->
      <g transform="translate(32.257812 332.839219)scale(0.1 -0.1)">
       <use xlink:href="#DejaVuSans-2212"/>
       <use x="83.789062" xlink:href="#DejaVuSans-32"/>
      </g>
     </g>
    </g>
    <g id="ytick_3">
     <g id="line2d_10">
      <g>
       <use style="stroke:#000000;stroke-width:0.8;" x="54" xlink:href="#ma11b4b1f10" y="273.6"/>
      </g>
     </g>
     <g id="text_11">
      <!-- −1 -->
      <g transform="translate(32.257812 277.399219)scale(0.1 -0.1)">
       <use xlink:href="#DejaVuSans-2212"/>
       <use x="83.789062" xlink:href="#DejaVuSans-31"/>
      </g>
     </g>
    </g>
    <g id="ytick_4">
     <g id="line2d_11">
      <g>
       <use style="stroke:#000000;stroke-width:0.8;" x="54" xlink:href="#ma11b4b1f10" y="218.16"/>
      </g>
     </g>
     <g id="text_12">
      <!-- 0 -->
      <g transform="translate(40.6375 221.959219)scale(0.1 -0.1)">
       <use xlink:href="#DejaVuSans-30"/>
      </g>
     </g>
    </g>
    <g id="ytick_5">
     <g id="line2d_12">
      <g>
       <use style="stroke:#000000;stroke-width:0.8;" x="54" xlink:href="#ma11b4b1f10" y="162.72"/>
      </g>
     </g>
     <g id="text_13">
      <!-- 1 -->
      <g transform="translate(40.6375 166.519219)scale(0.1 -0.1)">
       <use xlink:href="#DejaVuSans-31"/>
      </g>
     </g>
    </g>
    <g id="ytick_6">
     <g id="line2d_13">
      <g>
       <use style="stroke:#000000;stroke-width:0.8;" x="54" xlink:href="#ma11b4b1f10" y="107.28"/>
      </g>
     </g>
     <g id="text_14">
      <!-- 2 -->
      <g transform="translate(40.6375 111.079219)scale(0.1 -0.1)">
       <use xlink:href="#DejaVuSans-32"/>
      </g>
     </g>
    </g>
    <g id="ytick_7">
     <g id="line2d_14">
      <g>
       <use style="stroke:#000000;stroke-width:0.8;" x="54" xlink:href="#ma11b4b1f10" y="51.84"/>
      </g>
     </g>
     <g id="text_15">
      <!-- 3 -->
      <g transform="translate(40.6375 55.639219)scale(0.1 -0.1)">
       <use xlink:href="#DejaVuSans-33"/>
      </g>
     </g>
    </g>
    <g id="text_16">
     <!-- Y -->
     <g transform="translate(26.178125 221.213906)rotate(-90)scale(0.1 -0.1)">
      <defs>
       <path d="M -13 4666 
L 666 4666 
L 1959 2747 
L 3244 4666 
L 3922 4666 
L 2272 2222 
L 2272 0 
L 1638 0 
L 1638 2222 
L -13 4666 
z
" id="DejaVuSans-59" transform="scale(0.015625)"/>
      </defs>
      <use xlink:href="#DejaVuSans-59"/>
     </g>
    </g>
   </g>
   <g id="LineCollection_1"/>
   <g id="LineCollection_2">
    <path clip-path="url(#p70b74f54ad)" d="M 202.8 270.42375 
L 199.418182 269.092 
L 194.821023 266.88 
L 192.654545 265.65 
L 189.272727 263.487692 
L 185.007025 260.16 
L 181.417045 256.8 
L 178.379371 253.44 
L 175.745455 250.033333 
L 173.601623 246.72 
L 171.715455 243.36 
L 170.137273 240 
L 168.796875 236.64 
L 167.740057 233.28 
L 166.894602 229.92 
L 166.260511 226.56 
L 165.837784 223.2 
L 165.62642 219.84 
L 165.62642 216.48 
L 165.837784 213.12 
L 166.260511 209.76 
L 166.894602 206.4 
L 167.740057 203.04 
L 168.981818 199.19 
L 170.137273 196.32 
L 172.363636 191.7525 
L 173.601623 189.6 
L 175.777972 186.24 
L 179.127273 182.001818 
L 182.509091 178.435 
L 185.890909 175.416923 
L 189.319697 172.8 
L 192.654545 170.67 
L 196.036364 168.796 
L 199.418182 167.228 
L 202.8 165.89625 
L 206.181818 164.84625 
L 209.563636 164.00625 
L 212.945455 163.37625 
L 216.327273 162.95625 
L 219.709091 162.74625 
L 223.090909 162.74625 
L 226.472727 162.95625 
L 229.854545 163.37625 
L 233.236364 164.00625 
L 236.618182 164.84625 
L 240.493182 166.08 
L 243.381818 167.228 
L 247.978977 169.44 
L 250.145455 170.67 
L 253.527273 172.832308 
L 257.792975 176.16 
L 261.382955 179.52 
L 264.420629 182.88 
L 267.054545 186.286667 
L 269.198377 189.6 
L 271.084545 192.96 
L 272.662727 196.32 
L 274.003125 199.68 
L 275.059943 203.04 
L 275.905398 206.4 
L 276.539489 209.76 
L 276.962216 213.12 
L 277.17358 216.48 
L 277.17358 219.84 
L 276.962216 223.2 
L 276.539489 226.56 
L 275.905398 229.92 
L 275.059943 233.28 
L 273.818182 237.13 
L 272.662727 240 
L 270.436364 244.5675 
L 269.198377 246.72 
L 267.022028 250.08 
L 263.672727 254.318182 
L 260.290909 257.885 
L 256.909091 260.903077 
L 253.480303 263.52 
L 250.145455 265.65 
L 246.763636 267.524 
L 243.381818 269.092 
L 240 270.42375 
L 236.618182 271.47375 
L 233.236364 272.31375 
L 229.854545 272.94375 
L 226.472727 273.36375 
L 223.090909 273.57375 
L 219.709091 273.57375 
L 216.327273 273.36375 
L 212.945455 272.94375 
L 209.563636 272.31375 
L 206.181818 271.47375 
L 202.8 270.42375 
L 202.8 270.42375 
" style="fill:none;stroke:#900d26;stroke-width:1.5;"/>
   </g>
   <g id="LineCollection_3">
    <path clip-path="url(#p70b74f54ad)" d="M 202.8 294.344348 
L 199.418182 293.454545 
L 196.036364 292.385455 
L 190.775758 290.4 
L 189.272727 289.76 
L 183.738843 287.04 
L 182.509091 286.368 
L 178.086713 283.68 
L 173.32987 280.32 
L 172.363636 279.573333 
L 168.981818 276.762353 
L 165.6 273.6 
L 162.218182 270.016 
L 158.836364 265.92 
L 155.454545 261.193846 
L 154.778182 260.16 
L 152.072727 255.578182 
L 150.945455 253.44 
L 148.690909 248.586667 
L 147.922314 246.72 
L 146.692562 243.36 
L 145.309091 238.88 
L 144.720949 236.64 
L 143.985771 233.28 
L 143.397628 229.92 
L 142.956522 226.56 
L 142.662451 223.2 
L 142.515415 219.84 
L 142.515415 216.48 
L 142.662451 213.12 
L 142.956522 209.76 
L 143.397628 206.4 
L 143.985771 203.04 
L 145.309091 197.44 
L 145.616529 196.32 
L 146.692562 192.96 
L 148.690909 187.733333 
L 149.335065 186.24 
L 152.072727 180.741818 
L 152.749091 179.52 
L 155.454545 175.126154 
L 158.836364 170.4 
L 159.587879 169.44 
L 162.417112 166.08 
L 165.6 162.72 
L 169.207273 159.36 
L 173.32987 156 
L 178.086713 152.64 
L 179.127273 151.968 
L 183.738843 149.28 
L 185.890909 148.16 
L 190.775758 145.92 
L 192.654545 145.156364 
L 196.036364 143.934545 
L 200.545455 142.56 
L 202.8 141.975652 
L 206.181818 141.245217 
L 209.563636 140.66087 
L 212.945455 140.222609 
L 216.327273 139.930435 
L 219.709091 139.784348 
L 223.090909 139.784348 
L 226.472727 139.930435 
L 229.854545 140.222609 
L 233.236364 140.66087 
L 236.618182 141.245217 
L 242.254545 142.56 
L 243.381818 142.865455 
L 246.763636 143.934545 
L 252.024242 145.92 
L 253.527273 146.56 
L 259.061157 149.28 
L 260.290909 149.952 
L 264.713287 152.64 
L 269.47013 156 
L 270.436364 156.746667 
L 273.818182 159.557647 
L 277.2 162.72 
L 280.581818 166.304 
L 283.963636 170.4 
L 287.345455 175.126154 
L 288.021818 176.16 
L 290.727273 180.741818 
L 291.854545 182.88 
L 294.109091 187.733333 
L 294.877686 189.6 
L 296.107438 192.96 
L 297.490909 197.44 
L 298.079051 199.68 
L 298.814229 203.04 
L 299.402372 206.4 
L 299.843478 209.76 
L 300.137549 213.12 
L 300.284585 216.48 
L 300.284585 219.84 
L 300.137549 223.2 
L 299.843478 226.56 
L 299.402372 229.92 
L 298.814229 233.28 
L 297.490909 238.88 
L 297.183471 240 
L 296.107438 243.36 
L 294.109091 248.586667 
L 293.464935 250.08 
L 290.727273 255.578182 
L 290.050909 256.8 
L 287.345455 261.193846 
L 283.963636 265.92 
L 283.212121 266.88 
L 280.382888 270.24 
L 277.2 273.6 
L 273.592727 276.96 
L 269.47013 280.32 
L 264.713287 283.68 
L 263.672727 284.352 
L 259.061157 287.04 
L 256.909091 288.16 
L 252.024242 290.4 
L 250.145455 291.163636 
L 246.763636 292.385455 
L 242.254545 293.76 
L 240 294.344348 
L 236.618182 295.074783 
L 233.236364 295.65913 
L 229.854545 296.097391 
L 226.472727 296.389565 
L 223.090909 296.535652 
L 219.709091 296.535652 
L 216.327273 296.389565 
L 212.945455 296.097391 
L 209.563636 295.65913 
L 206.181818 295.074783 
L 202.8 294.344348 
L 202.8 294.344348 
" style="fill:none;stroke:#b61f2e;stroke-width:1.5;"/>
   </g>
   <g id="LineCollection_4">
    <path clip-path="url(#p70b74f54ad)" d="M 216.327273 314.050345 
L 212.945455 313.815 
L 209.563636 313.455 
L 206.181818 312.975 
L 202.8 312.375 
L 199.418182 311.655 
L 195.138068 310.56 
L 192.654545 309.828889 
L 189.272727 308.708889 
L 185.237603 307.2 
L 182.509091 306.053077 
L 177.794056 303.84 
L 175.745455 302.7816 
L 171.659091 300.48 
L 166.419034 297.12 
L 165.6 296.553913 
L 161.818939 293.76 
L 157.746172 290.4 
L 154.080682 287.04 
L 150.764286 283.68 
L 147.74938 280.32 
L 144.99664 276.96 
L 141.927273 272.78625 
L 138.545455 267.58 
L 138.122727 266.88 
L 135.163636 261.484615 
L 134.497028 260.16 
L 131.781818 254.089091 
L 131.515657 253.44 
L 130.263131 250.08 
L 128.4 244.2525 
L 128.143344 243.36 
L 127.29789 240 
L 126.573214 236.64 
L 125.969318 233.28 
L 125.486201 229.92 
L 125.018182 225.09 
L 124.886991 223.2 
L 124.770376 219.84 
L 124.770376 216.48 
L 125.018182 211.23 
L 125.123864 209.76 
L 125.486201 206.4 
L 125.969318 203.04 
L 126.573214 199.68 
L 127.29789 196.32 
L 128.4 192.0675 
L 129.135859 189.6 
L 130.263131 186.24 
L 131.781818 182.230909 
L 132.936189 179.52 
L 135.163636 174.835385 
L 136.228909 172.8 
L 138.545455 168.74 
L 141.927273 163.53375 
L 142.497036 162.72 
L 145.309091 158.963333 
L 148.690909 154.916842 
L 152.072727 151.275 
L 155.454545 147.98 
L 158.836364 144.984545 
L 162.218182 142.249565 
L 166.419034 139.2 
L 171.659091 135.84 
L 172.363636 135.42 
L 177.794056 132.48 
L 179.127273 131.817692 
L 185.237603 129.12 
L 185.890909 128.855556 
L 189.272727 127.611111 
L 195.138068 125.76 
L 196.036364 125.505 
L 199.418182 124.665 
L 202.8 123.945 
L 206.181818 123.345 
L 209.563636 122.865 
L 214.425 122.4 
L 216.327273 122.269655 
L 219.709091 122.153793 
L 223.090909 122.153793 
L 228.375 122.4 
L 229.854545 122.505 
L 233.236364 122.865 
L 236.618182 123.345 
L 240 123.945 
L 243.381818 124.665 
L 247.661932 125.76 
L 250.145455 126.491111 
L 253.527273 127.611111 
L 257.562397 129.12 
L 260.290909 130.266923 
L 265.005944 132.48 
L 267.054545 133.5384 
L 271.140909 135.84 
L 276.380966 139.2 
L 277.2 139.766087 
L 280.981061 142.56 
L 285.053828 145.92 
L 288.719318 149.28 
L 292.035714 152.64 
L 295.05062 156 
L 297.80336 159.36 
L 300.872727 163.53375 
L 304.254545 168.74 
L 304.677273 169.44 
L 307.636364 174.835385 
L 308.302972 176.16 
L 311.018182 182.230909 
L 311.284343 182.88 
L 312.536869 186.24 
L 314.4 192.0675 
L 314.656656 192.96 
L 315.50211 196.32 
L 316.226786 199.68 
L 316.830682 203.04 
L 317.313799 206.4 
L 317.781818 211.23 
L 317.913009 213.12 
L 318.029624 216.48 
L 318.029624 219.84 
L 317.781818 225.09 
L 317.676136 226.56 
L 317.313799 229.92 
L 316.830682 233.28 
L 316.226786 236.64 
L 315.50211 240 
L 314.4 244.2525 
L 313.664141 246.72 
L 312.536869 250.08 
L 311.018182 254.089091 
L 309.863811 256.8 
L 307.636364 261.484615 
L 306.571091 263.52 
L 304.254545 267.58 
L 300.872727 272.78625 
L 300.302964 273.6 
L 297.490909 277.356667 
L 294.109091 281.403158 
L 290.727273 285.045 
L 287.345455 288.34 
L 283.963636 291.335455 
L 280.581818 294.070435 
L 276.380966 297.12 
L 271.140909 300.48 
L 270.436364 300.9 
L 265.005944 303.84 
L 263.672727 304.502308 
L 257.562397 307.2 
L 256.909091 307.464444 
L 253.527273 308.708889 
L 247.661932 310.56 
L 246.763636 310.815 
L 243.381818 311.655 
L 240 312.375 
L 236.618182 312.975 
L 233.236364 313.455 
L 228.375 313.92 
L 226.472727 314.050345 
L 223.090909 314.166207 
L 219.709091 314.166207 
L 216.327273 314.050345 
L 216.327273 314.050345 
" style="fill:none;stroke:#c94741;stroke-width:1.5;"/>
   </g>
   <g id="LineCollection_5">
    <path clip-path="url(#p70b74f54ad)" d="M 202.8 327.487273 
L 199.418182 326.86125 
L 192.654545 325.28625 
L 188.173636 324 
L 182.509091 322.076129 
L 178.802098 320.64 
L 172.363636 317.756 
L 168.981818 316.034483 
L 165.152406 313.92 
L 159.728788 310.56 
L 155.454545 307.604444 
L 152.072727 305.035385 
L 148.690909 302.2608 
L 145.309091 299.255 
L 141.927273 295.987826 
L 138.545455 292.423636 
L 135.163636 288.52 
L 131.781818 284.226 
L 128.994949 280.32 
L 126.799675 276.96 
L 124.755799 273.6 
L 121.636364 267.832 
L 119.579091 263.52 
L 118.118182 260.16 
L 115.609091 253.44 
L 114.529261 250.08 
L 112.73267 243.36 
L 111.36281 236.64 
L 110.440496 229.92 
L 109.928099 223.2 
L 109.82562 216.48 
L 110.133058 209.76 
L 110.850413 203.04 
L 111.490909 198.98 
L 112.73267 192.96 
L 114.529261 186.24 
L 115.609091 182.88 
L 118.118182 176.16 
L 119.579091 172.8 
L 121.636364 168.488 
L 124.755799 162.72 
L 126.799675 159.36 
L 128.994949 156 
L 131.781818 152.094 
L 135.163636 147.8 
L 138.545455 143.896364 
L 141.927273 140.332174 
L 145.309091 137.065 
L 148.690909 134.0592 
L 152.072727 131.284615 
L 155.454545 128.715556 
L 159.728788 125.76 
L 165.6 122.13931 
L 171.405455 119.04 
L 175.745455 116.996 
L 179.127273 115.544516 
L 185.890909 113.051613 
L 189.272727 111.97875 
L 196.036364 110.19375 
L 202.8 108.832727 
L 209.563636 107.916364 
L 216.327273 107.407273 
L 223.090909 107.305455 
L 229.854545 107.610909 
L 236.618182 108.323636 
L 240.704545 108.96 
L 246.763636 110.19375 
L 253.527273 111.97875 
L 256.909091 113.051613 
L 263.672727 115.544516 
L 267.054545 116.996 
L 271.394545 119.04 
L 277.2 122.13931 
L 280.581818 124.17 
L 283.963636 126.351111 
L 287.895 129.12 
L 292.216883 132.48 
L 296.145868 135.84 
L 299.733202 139.2 
L 303.021591 142.56 
L 306.046909 145.92 
L 308.83951 149.28 
L 311.425253 152.64 
L 314.4 156.886667 
L 318.044201 162.72 
L 321.163636 168.488 
L 323.220909 172.8 
L 324.681818 176.16 
L 327.190909 182.88 
L 328.270739 186.24 
L 330.06733 192.96 
L 331.43719 199.68 
L 332.359504 206.4 
L 332.871901 213.12 
L 332.97438 219.84 
L 332.666942 226.56 
L 331.949587 233.28 
L 331.309091 237.34 
L 330.06733 243.36 
L 328.270739 250.08 
L 327.190909 253.44 
L 324.681818 260.16 
L 323.220909 263.52 
L 321.163636 267.832 
L 318.044201 273.6 
L 316.000325 276.96 
L 313.805051 280.32 
L 311.018182 284.226 
L 307.636364 288.52 
L 304.254545 292.423636 
L 300.872727 295.987826 
L 297.490909 299.255 
L 294.109091 302.2608 
L 290.727273 305.035385 
L 287.345455 307.604444 
L 283.071212 310.56 
L 277.2 314.18069 
L 271.394545 317.28 
L 267.054545 319.324 
L 263.672727 320.775484 
L 256.909091 323.268387 
L 253.527273 324.34125 
L 246.763636 326.12625 
L 240 327.487273 
L 233.236364 328.403636 
L 226.472727 328.912727 
L 219.709091 329.014545 
L 212.945455 328.709091 
L 206.181818 327.996364 
L 202.8 327.487273 
L 202.8 327.487273 
" style="fill:none;stroke:#dc6e57;stroke-width:1.5;"/>
   </g>
   <g id="LineCollection_6">
    <path clip-path="url(#p70b74f54ad)" d="M 206.181818 341.197297 
L 199.418182 340.181667 
L 192.654545 338.781667 
L 185.890909 336.996 
L 179.127273 334.788 
L 175.745455 333.524118 
L 168.981818 330.656364 
L 162.218182 327.294375 
L 155.454545 323.390323 
L 151.207143 320.64 
L 146.481198 317.28 
L 141.927273 313.725 
L 138.224182 310.56 
L 134.59458 307.2 
L 131.233838 303.84 
L 128.113149 300.48 
L 125.018182 296.882609 
L 121.636364 292.595455 
L 117.668182 287.04 
L 114.872727 282.685263 
L 111.490909 276.836471 
L 108.109091 270.1 
L 105.286765 263.52 
L 104.014675 260.16 
L 101.792338 253.44 
L 100.84053 250.08 
L 99.243561 243.36 
L 98.022348 236.64 
L 97.563759 233.28 
L 96.923956 226.56 
L 96.649754 219.84 
L 96.741155 213.12 
L 97.198157 206.4 
L 98.022348 199.68 
L 99.243561 192.96 
L 100.84053 186.24 
L 101.792338 182.88 
L 104.014675 176.16 
L 105.286765 172.8 
L 108.17314 166.08 
L 111.55696 159.36 
L 115.486364 152.64 
L 118.254545 148.42 
L 121.636364 143.724545 
L 125.214448 139.2 
L 128.4 135.5208 
L 131.781818 131.914615 
L 135.163636 128.575556 
L 138.545455 125.475 
L 142.166206 122.4 
L 146.481198 119.04 
L 152.072727 115.097419 
L 156.455742 112.32 
L 162.342513 108.96 
L 169.122727 105.6 
L 175.745455 102.795882 
L 179.127273 101.532 
L 185.890909 99.324 
L 189.272727 98.378333 
L 196.036364 96.791667 
L 202.8 95.578333 
L 206.181818 95.122703 
L 212.945455 94.487027 
L 219.709091 94.214595 
L 226.472727 94.305405 
L 233.236364 94.759459 
L 240 95.578333 
L 246.763636 96.791667 
L 253.527273 98.378333 
L 256.909091 99.324 
L 263.672727 101.532 
L 267.054545 102.795882 
L 273.818182 105.663636 
L 280.581818 109.025625 
L 287.345455 112.929677 
L 291.592857 115.68 
L 296.318802 119.04 
L 300.872727 122.595 
L 304.575818 125.76 
L 308.20542 129.12 
L 311.566162 132.48 
L 314.686851 135.84 
L 317.781818 139.437391 
L 321.163636 143.724545 
L 325.131818 149.28 
L 327.927273 153.634737 
L 331.309091 159.483529 
L 334.690909 166.22 
L 337.513235 172.8 
L 338.785325 176.16 
L 341.007662 182.88 
L 341.95947 186.24 
L 343.556439 192.96 
L 344.777652 199.68 
L 345.236241 203.04 
L 345.876044 209.76 
L 346.150246 216.48 
L 346.058845 223.2 
L 345.601843 229.92 
L 344.777652 236.64 
L 343.556439 243.36 
L 341.95947 250.08 
L 341.007662 253.44 
L 338.785325 260.16 
L 337.513235 263.52 
L 334.62686 270.24 
L 331.24304 276.96 
L 327.313636 283.68 
L 324.545455 287.9 
L 321.163636 292.595455 
L 317.585552 297.12 
L 314.4 300.7992 
L 311.018182 304.405385 
L 307.636364 307.744444 
L 304.254545 310.845 
L 300.633794 313.92 
L 296.318802 317.28 
L 290.727273 321.222581 
L 286.344258 324 
L 280.457487 327.36 
L 273.677273 330.72 
L 267.054545 333.524118 
L 263.672727 334.788 
L 256.909091 336.996 
L 253.527273 337.941667 
L 246.763636 339.528333 
L 240 340.741667 
L 236.618182 341.197297 
L 229.854545 341.832973 
L 223.090909 342.105405 
L 216.327273 342.014595 
L 209.563636 341.560541 
L 206.181818 341.197297 
L 206.181818 341.197297 
" style="fill:none;stroke:#ee9677;stroke-width:1.5;"/>
   </g>
   <g id="LineCollection_7">
    <path clip-path="url(#p70b74f54ad)" d="M 192.654545 350.922 
L 189.272727 350.147692 
L 182.509091 348.338462 
L 179.127273 347.298947 
L 172.363636 344.911579 
L 168.981818 343.56973 
L 162.218182 340.566667 
L 155.454545 337.104 
L 148.690909 333.141176 
L 144.941502 330.72 
L 140.165909 327.36 
L 135.163636 323.512258 
L 131.719192 320.64 
L 127.977273 317.28 
L 124.493417 313.92 
L 121.241818 310.56 
L 118.2 307.2 
L 114.872727 303.2352 
L 111.490909 298.87 
L 107.860428 293.76 
L 103.616104 287.04 
L 101.345455 283.061053 
L 97.963636 276.465882 
L 95.175921 270.24 
L 93.825359 266.88 
L 91.422488 260.16 
L 90.376224 256.8 
L 88.555245 250.08 
L 87.099545 243.36 
L 86.000455 236.64 
L 85.239545 229.92 
L 84.816818 223.2 
L 84.732273 216.48 
L 84.985909 209.76 
L 85.577727 203.04 
L 86.507727 196.32 
L 87.818182 189.413333 
L 89.422378 182.88 
L 91.422488 176.16 
L 93.825359 169.44 
L 95.175921 166.08 
L 98.198485 159.36 
L 101.683636 152.64 
L 105.672193 145.92 
L 108.109091 142.194783 
L 111.490909 137.45 
L 115.363636 132.48 
L 118.254545 129.057778 
L 121.636364 125.34 
L 125.018182 121.878621 
L 128.4 118.648 
L 131.781818 115.625806 
L 135.772364 112.32 
L 140.165909 108.96 
L 145.309091 105.352941 
L 152.072727 101.136 
L 156.077512 98.88 
L 162.715508 95.52 
L 168.981818 92.75027 
L 172.363636 91.408421 
L 179.127273 89.021053 
L 182.509091 87.981538 
L 189.272727 86.172308 
L 196.036364 84.726 
L 202.8 83.634 
L 209.563636 82.878 
L 216.327273 82.458 
L 223.090909 82.374 
L 229.854545 82.626 
L 236.618182 83.214 
L 243.381818 84.138 
L 250.333333 85.44 
L 256.909091 87.033846 
L 263.672727 89.021053 
L 270.436364 91.408421 
L 273.818182 92.75027 
L 280.581818 95.753333 
L 287.345455 99.216 
L 294.109091 103.178824 
L 297.858498 105.6 
L 302.634091 108.96 
L 307.636364 112.807742 
L 311.080808 115.68 
L 314.822727 119.04 
L 318.306583 122.4 
L 321.558182 125.76 
L 324.6 129.12 
L 327.927273 133.0848 
L 331.309091 137.45 
L 334.939572 142.56 
L 339.183896 149.28 
L 341.454545 153.258947 
L 344.836364 159.854118 
L 347.624079 166.08 
L 348.974641 169.44 
L 351.377512 176.16 
L 352.423776 179.52 
L 354.244755 186.24 
L 355.700455 192.96 
L 356.799545 199.68 
L 357.560455 206.4 
L 357.983182 213.12 
L 358.067727 219.84 
L 357.814091 226.56 
L 357.222273 233.28 
L 356.292273 240 
L 354.981818 246.906667 
L 353.377622 253.44 
L 351.377512 260.16 
L 348.974641 266.88 
L 347.624079 270.24 
L 344.601515 276.96 
L 341.116364 283.68 
L 337.127807 290.4 
L 334.690909 294.125217 
L 331.309091 298.87 
L 327.436364 303.84 
L 324.545455 307.262222 
L 321.163636 310.98 
L 317.781818 314.441379 
L 314.4 317.672 
L 311.018182 320.694194 
L 307.027636 324 
L 302.634091 327.36 
L 297.490909 330.967059 
L 290.727273 335.184 
L 286.722488 337.44 
L 280.084492 340.8 
L 273.818182 343.56973 
L 270.436364 344.911579 
L 263.672727 347.298947 
L 260.290909 348.338462 
L 253.527273 350.147692 
L 246.763636 351.594 
L 240 352.686 
L 233.236364 353.442 
L 226.472727 353.862 
L 219.709091 353.946 
L 212.945455 353.694 
L 206.181818 353.106 
L 199.418182 352.182 
L 192.654545 350.922 
L 192.654545 350.922 
" style="fill:none;stroke:#f7b799;stroke-width:1.5;"/>
   </g>
   <g id="LineCollection_8">
    <path clip-path="url(#p70b74f54ad)" d="M 209.563636 364.367727 
L 202.8 363.665581 
L 196.036364 362.649767 
L 189.272727 361.321395 
L 182.509091 359.65 
L 175.594481 357.6 
L 168.981818 355.274634 
L 165.6 353.9565 
L 158.547129 350.88 
L 151.811039 347.52 
L 145.309091 343.853514 
L 138.545455 339.551667 
L 135.163636 337.212 
L 130.95202 334.08 
L 126.754383 330.72 
L 121.636364 326.270625 
L 118.254545 323.092258 
L 114.872727 319.702 
L 111.490909 316.077931 
L 106.753877 310.56 
L 104.087143 307.2 
L 101.345455 303.5208 
L 96.992506 297.12 
L 94.581818 293.244545 
L 91.059091 287.04 
L 87.680795 280.32 
L 84.436364 272.89125 
L 82.157761 266.88 
L 79.957468 260.16 
L 78.105519 253.44 
L 76.601163 246.72 
L 75.421459 240 
L 74.556342 233.28 
L 74.012293 226.56 
L 73.781715 219.84 
L 73.858574 213.12 
L 74.290909 205.875 
L 74.949577 199.68 
L 75.971987 192.96 
L 77.308985 186.24 
L 78.991234 179.52 
L 81.054545 172.65 
L 83.395011 166.08 
L 84.721705 162.72 
L 87.818182 155.712632 
L 91.2 149.02 
L 94.890295 142.56 
L 99.220076 135.84 
L 101.574935 132.48 
L 104.727273 128.295556 
L 108.109091 124.125 
L 112.587358 119.04 
L 115.786364 115.68 
L 119.198636 112.32 
L 122.846238 108.96 
L 128.4 104.253529 
L 131.781818 101.604 
L 135.484909 98.88 
L 141.927273 94.555135 
L 145.827893 92.16 
L 152.072727 88.66 
L 158.836364 85.3035 
L 166.313352 82.08 
L 172.363636 79.816098 
L 179.127273 77.63 
L 185.890909 75.79 
L 192.654545 74.295349 
L 199.418182 73.123256 
L 206.181818 72.263721 
L 212.945455 71.723182 
L 219.709091 71.494091 
L 226.472727 71.570455 
L 233.764773 72 
L 240 72.654419 
L 246.763636 73.670233 
L 253.527273 74.998605 
L 260.290909 76.67 
L 267.205519 78.72 
L 273.818182 81.045366 
L 277.2 82.3635 
L 284.252871 85.44 
L 290.988961 88.8 
L 297.490909 92.466486 
L 304.254545 96.768333 
L 307.636364 99.108 
L 311.84798 102.24 
L 316.045617 105.6 
L 321.163636 110.049375 
L 324.545455 113.227742 
L 327.927273 116.618 
L 331.309091 120.242069 
L 336.046123 125.76 
L 338.712857 129.12 
L 341.454545 132.7992 
L 345.807494 139.2 
L 348.218182 143.075455 
L 351.740909 149.28 
L 355.119205 156 
L 358.363636 163.42875 
L 360.642239 169.44 
L 362.842532 176.16 
L 364.694481 182.88 
L 366.198837 189.6 
L 367.378541 196.32 
L 368.243658 203.04 
L 368.787707 209.76 
L 369.018285 216.48 
L 368.941426 223.2 
L 368.509091 230.445 
L 367.850423 236.64 
L 366.828013 243.36 
L 365.491015 250.08 
L 363.808766 256.8 
L 361.745455 263.67 
L 359.404989 270.24 
L 358.078295 273.6 
L 354.981818 280.607368 
L 351.6 287.3 
L 347.909705 293.76 
L 343.579924 300.48 
L 341.225065 303.84 
L 338.072727 308.024444 
L 334.690909 312.195 
L 330.212642 317.28 
L 327.013636 320.64 
L 323.601364 324 
L 319.953762 327.36 
L 314.4 332.066471 
L 311.018182 334.716 
L 307.315091 337.44 
L 300.872727 341.764865 
L 296.972107 344.16 
L 290.727273 347.66 
L 283.963636 351.0165 
L 276.486648 354.24 
L 270.436364 356.503902 
L 263.672727 358.69 
L 256.909091 360.53 
L 250.145455 362.024651 
L 243.381818 363.196744 
L 236.618182 364.056279 
L 229.854545 364.596818 
L 223.090909 364.825909 
L 216.327273 364.749545 
L 209.563636 364.367727 
L 209.563636 364.367727 
" style="fill:none;stroke:#fcd5bf;stroke-width:1.5;"/>
   </g>
   <g id="LineCollection_9">
    <path clip-path="url(#p70b74f54ad)" d="M 209.563636 374.525106 
L 202.8 373.870435 
L 196.036364 372.92087 
L 189.272727 371.67913 
L 182.509091 370.125333 
L 175.745455 368.258667 
L 168.981818 366.057273 
L 162.218182 363.51907 
L 155.454545 360.62 
L 148.690909 357.333659 
L 141.927273 353.631 
L 135.163636 349.48 
L 131.781818 347.232632 
L 127.463961 344.16 
L 121.636364 339.656667 
L 118.254545 336.84 
L 114.872727 333.857647 
L 111.490909 330.694545 
L 108.109091 327.33375 
L 104.727273 323.756129 
L 101.345455 319.94 
L 96.432678 313.92 
L 93.892105 310.56 
L 91.2 306.78 
L 87.078409 300.48 
L 83.137251 293.76 
L 79.625325 287.04 
L 76.512685 280.32 
L 73.772107 273.6 
L 71.389463 266.88 
L 69.349697 260.16 
L 67.527273 253.02 
L 66.222332 246.72 
L 65.119565 240 
L 64.31087 233.28 
L 63.803675 226.56 
L 63.587814 219.84 
L 63.659768 213.12 
L 64.019536 206.4 
L 64.678458 199.68 
L 65.63419 192.96 
L 66.883992 186.24 
L 68.447879 179.52 
L 70.326667 172.8 
L 72.542355 166.08 
L 75.09704 159.36 
L 78.014935 152.64 
L 81.322616 145.92 
L 85.049318 139.2 
L 89.227273 132.48 
L 91.489234 129.12 
L 94.581818 124.83 
L 99.114394 119.04 
L 101.949351 115.68 
L 104.95107 112.32 
L 108.134711 108.96 
L 111.51733 105.6 
L 115.118182 102.24 
L 118.959091 98.88 
L 125.018182 93.998919 
L 128.4 91.474737 
L 132.204545 88.8 
L 138.545455 84.705 
L 145.309091 80.789268 
L 152.072727 77.3 
L 158.836364 74.207442 
L 165.6 71.484545 
L 172.363636 69.117273 
L 179.127273 67.090667 
L 186.313636 65.28 
L 192.654545 63.983478 
L 199.418182 62.887826 
L 206.181818 62.084348 
L 212.945455 61.580426 
L 219.709091 61.365957 
L 226.472727 61.437447 
L 233.236364 61.794894 
L 240 62.449565 
L 246.763636 63.39913 
L 253.527273 64.64087 
L 260.290909 66.194667 
L 267.054545 68.061333 
L 273.818182 70.262727 
L 280.581818 72.80093 
L 287.345455 75.7 
L 294.109091 78.986341 
L 300.872727 82.689 
L 307.636364 86.84 
L 311.018182 89.087368 
L 315.336039 92.16 
L 321.163636 96.663333 
L 324.545455 99.48 
L 327.927273 102.462353 
L 331.309091 105.625455 
L 334.690909 108.98625 
L 338.072727 112.563871 
L 341.454545 116.38 
L 346.367322 122.4 
L 348.907895 125.76 
L 351.6 129.54 
L 355.721591 135.84 
L 359.662749 142.56 
L 363.174675 149.28 
L 366.287315 156 
L 369.027893 162.72 
L 371.410537 169.44 
L 373.450303 176.16 
L 375.272727 183.3 
L 376.577668 189.6 
L 377.680435 196.32 
L 378.48913 203.04 
L 378.996325 209.76 
L 379.212186 216.48 
L 379.140232 223.2 
L 378.780464 229.92 
L 378.121542 236.64 
L 377.16581 243.36 
L 375.916008 250.08 
L 374.352121 256.8 
L 372.473333 263.52 
L 370.257645 270.24 
L 367.70296 276.96 
L 364.785065 283.68 
L 361.477384 290.4 
L 357.750682 297.12 
L 353.572727 303.84 
L 351.310766 307.2 
L 348.218182 311.49 
L 343.685606 317.28 
L 340.850649 320.64 
L 337.84893 324 
L 334.665289 327.36 
L 331.28267 330.72 
L 327.681818 334.08 
L 323.840909 337.44 
L 317.781818 342.321081 
L 314.4 344.845263 
L 310.595455 347.52 
L 304.254545 351.615 
L 297.490909 355.530732 
L 290.727273 359.02 
L 283.963636 362.112558 
L 277.2 364.835455 
L 270.436364 367.202727 
L 263.672727 369.229333 
L 256.486364 371.04 
L 250.145455 372.336522 
L 243.381818 373.432174 
L 236.618182 374.235652 
L 229.854545 374.739574 
L 223.090909 374.954043 
L 216.327273 374.882553 
L 209.563636 374.525106 
L 209.563636 374.525106 
" style="fill:none;stroke:#feebdf;stroke-width:1.5;"/>
   </g>
   <g id="LineCollection_10">
    <path clip-path="url(#p70b74f54ad)" d="M 189.272727 381.385714 
L 182.509091 379.92125 
L 175.745455 378.17125 
L 168.981818 376.106809 
L 162.218182 373.733478 
L 155.454545 371.030667 
L 148.095248 367.68 
L 141.522159 364.32 
L 135.163636 360.71 
L 128.4 356.442439 
L 125.018182 354.1455 
L 118.254545 349.146154 
L 114.872727 346.447895 
L 111.490909 343.603784 
L 108.109091 340.601667 
L 104.727273 337.428 
L 101.345455 334.067647 
L 97.963636 330.503636 
L 94.581818 326.716875 
L 89.563287 320.64 
L 86.983295 317.28 
L 84.436364 313.785 
L 80.017857 307.2 
L 75.952326 300.48 
L 72.302169 293.76 
L 69.039697 287.04 
L 66.139625 280.32 
L 63.57882 273.6 
L 61.348259 266.88 
L 59.433807 260.16 
L 57.813352 253.44 
L 56.493228 246.72 
L 55.457978 240 
L 54.698794 233.28 
L 54.215677 226.56 
L 54.008627 219.84 
L 54.077644 213.12 
L 54.422727 206.4 
L 55.043878 199.68 
L 55.941095 192.96 
L 57.114378 186.24 
L 58.588352 179.52 
L 60.349716 172.8 
L 62.427563 166.08 
L 64.816304 159.36 
L 67.536667 152.64 
L 70.909091 145.328182 
L 74.290909 138.7975 
L 77.924351 132.48 
L 82.219623 125.76 
L 84.531477 122.4 
L 89.563287 115.68 
L 92.279067 112.32 
L 95.141646 108.96 
L 98.163258 105.6 
L 101.357532 102.24 
L 104.739706 98.88 
L 108.32686 95.52 
L 112.13821 92.16 
L 118.254545 87.173846 
L 121.636364 84.6105 
L 125.154058 82.08 
L 131.781818 77.69 
L 138.545455 73.650698 
L 145.309091 70.024091 
L 152.072727 66.782667 
L 158.836364 63.901304 
L 165.6 61.357021 
L 172.363636 59.140851 
L 179.127273 57.23875 
L 185.890909 55.62875 
L 192.654545 54.317143 
L 199.418182 53.288571 
L 206.181818 52.534286 
L 212.945455 52.054286 
L 219.709091 51.848571 
L 226.472727 51.917143 
L 233.236364 52.26 
L 240 52.877143 
L 246.763636 53.768571 
L 253.527273 54.934286 
L 260.290909 56.39875 
L 267.054545 58.14875 
L 273.818182 60.213191 
L 280.581818 62.586522 
L 287.345455 65.289333 
L 294.704752 68.64 
L 301.277841 72 
L 307.636364 75.61 
L 314.4 79.877561 
L 317.781818 82.1745 
L 324.545455 87.173846 
L 327.927273 89.872105 
L 331.309091 92.716216 
L 334.690909 95.718333 
L 338.072727 98.892 
L 341.454545 102.252353 
L 344.836364 105.816364 
L 348.218182 109.603125 
L 353.236713 115.68 
L 355.816705 119.04 
L 358.363636 122.535 
L 362.782143 129.12 
L 366.847674 135.84 
L 370.497831 142.56 
L 373.760303 149.28 
L 376.660375 156 
L 379.22118 162.72 
L 381.451741 169.44 
L 383.366193 176.16 
L 384.986648 182.88 
L 386.306772 189.6 
L 387.342022 196.32 
L 388.101206 203.04 
L 388.584323 209.76 
L 388.791373 216.48 
L 388.722356 223.2 
L 388.377273 229.92 
L 387.756122 236.64 
L 386.858905 243.36 
L 385.685622 250.08 
L 384.211648 256.8 
L 382.450284 263.52 
L 380.372437 270.24 
L 377.983696 276.96 
L 375.263333 283.68 
L 371.890909 290.991818 
L 368.509091 297.5225 
L 364.875649 303.84 
L 360.580377 310.56 
L 358.268523 313.92 
L 353.236713 320.64 
L 350.520933 324 
L 347.658354 327.36 
L 344.636742 330.72 
L 341.442468 334.08 
L 338.060294 337.44 
L 334.47314 340.8 
L 330.66179 344.16 
L 324.545455 349.146154 
L 321.163636 351.7095 
L 317.645942 354.24 
L 311.018182 358.63 
L 304.254545 362.669302 
L 297.490909 366.295909 
L 290.727273 369.537333 
L 283.963636 372.418696 
L 277.2 374.962979 
L 270.436364 377.179149 
L 263.672727 379.08125 
L 256.909091 380.69125 
L 250.145455 382.002857 
L 243.381818 383.031429 
L 236.618182 383.785714 
L 229.854545 384.265714 
L 223.090909 384.471429 
L 216.327273 384.402857 
L 209.563636 384.06 
L 202.8 383.442857 
L 196.036364 382.551429 
L 189.272727 381.385714 
L 189.272727 381.385714 
" style="fill:none;stroke:#fefefe;stroke-width:1.5;"/>
   </g>
   <g id="LineCollection_11">
    <path clip-path="url(#p70b74f54ad)" d="M 165.6 384.48 
L 162.218182 383.314286 
L 158.836364 382.08 
L 156.344498 381.12 
L 155.454545 380.77 
L 152.072727 379.37 
L 148.690909 377.9 
L 148.383471 377.76 
L 145.309091 376.330213 
L 141.927273 374.685957 
L 141.363636 374.4 
L 138.545455 372.93913 
L 135.163636 371.113043 
L 135.033566 371.04 
L 131.781818 369.173333 
L 129.276768 367.68 
L 128.4 367.145455 
L 125.018182 365.007273 
L 123.968652 364.32 
L 121.636364 362.757209 
L 119.043636 360.96 
L 118.254545 360.4 
L 114.872727 357.92 
L 114.45 357.6 
L 111.490909 355.305366 
L 110.158678 354.24 
L 108.109091 352.56 
L 106.119786 350.88 
L 104.727273 349.673846 
L 102.311688 347.52 
L 101.345455 346.635789 
L 98.715152 344.16 
L 97.963636 343.433514 
L 95.313022 340.8 
L 94.581818 340.053333 
L 92.089952 337.44 
L 91.2 336.48 
L 89.032168 334.08 
L 87.818182 332.696471 
L 86.127273 330.72 
L 84.436364 328.683636 
L 83.36408 327.36 
L 81.054545 324.42 
L 80.732468 324 
L 78.236364 320.64 
L 77.672727 319.856 
L 75.863848 317.28 
L 74.290909 314.962759 
L 73.599174 313.92 
L 71.447107 310.56 
L 70.909091 309.688889 
L 69.406061 307.2 
L 67.527273 303.969231 
L 67.453755 303.84 
L 65.61581 300.48 
L 64.145455 297.68 
L 63.85764 297.12 
L 62.202708 293.76 
L 60.763636 290.705455 
L 60.622727 290.4 
L 59.143182 287.04 
L 57.734091 283.68 
L 57.381818 282.795789 
L 56.415584 280.32 
L 55.173284 276.96 
L 54 273.6 
" style="fill:none;stroke:#ededed;stroke-width:1.5;"/>
    <path clip-path="url(#p70b74f54ad)" d="M 388.8 273.6 
L 387.626716 276.96 
L 386.384416 280.32 
L 385.418182 282.795789 
L 385.065909 283.68 
L 383.656818 287.04 
L 382.177273 290.4 
L 382.036364 290.705455 
L 380.597292 293.76 
L 378.94236 297.12 
L 378.654545 297.68 
L 377.18419 300.48 
L 375.346245 303.84 
L 375.272727 303.969231 
L 373.393939 307.2 
L 371.890909 309.688889 
L 371.352893 310.56 
L 369.200826 313.92 
L 368.509091 314.962759 
L 366.936152 317.28 
L 365.127273 319.856 
L 364.563636 320.64 
L 362.067532 324 
L 361.745455 324.42 
L 359.43592 327.36 
L 358.363636 328.683636 
L 356.672727 330.72 
L 354.981818 332.696471 
L 353.767832 334.08 
L 351.6 336.48 
L 350.710048 337.44 
L 348.218182 340.053333 
L 347.486978 340.8 
L 344.836364 343.433514 
L 344.084848 344.16 
L 341.454545 346.635789 
L 340.488312 347.52 
L 338.072727 349.673846 
L 336.680214 350.88 
L 334.690909 352.56 
L 332.641322 354.24 
L 331.309091 355.305366 
L 328.35 357.6 
L 327.927273 357.92 
L 324.545455 360.4 
L 323.756364 360.96 
L 321.163636 362.757209 
L 318.831348 364.32 
L 317.781818 365.007273 
L 314.4 367.145455 
L 313.523232 367.68 
L 311.018182 369.173333 
L 307.766434 371.04 
L 307.636364 371.113043 
L 304.254545 372.93913 
L 301.436364 374.4 
L 300.872727 374.685957 
L 297.490909 376.330213 
L 294.416529 377.76 
L 294.109091 377.9 
L 290.727273 379.37 
L 287.345455 380.77 
L 286.455502 381.12 
L 283.963636 382.08 
L 280.581818 383.314286 
L 277.2 384.48 
" style="fill:none;stroke:#ededed;stroke-width:1.5;"/>
    <path clip-path="url(#p70b74f54ad)" d="M 54 162.72 
L 55.173284 159.36 
L 56.415584 156 
L 57.381818 153.524211 
L 57.734091 152.64 
L 59.143182 149.28 
L 60.622727 145.92 
L 60.763636 145.614545 
L 62.202708 142.56 
L 63.85764 139.2 
L 64.145455 138.64 
L 65.61581 135.84 
L 67.453755 132.48 
L 67.527273 132.350769 
L 69.406061 129.12 
L 70.909091 126.631111 
L 71.447107 125.76 
L 73.599174 122.4 
L 74.290909 121.357241 
L 75.863848 119.04 
L 77.672727 116.464 
L 78.236364 115.68 
L 80.732468 112.32 
L 81.054545 111.9 
L 83.36408 108.96 
L 84.436364 107.636364 
L 86.127273 105.6 
L 87.818182 103.623529 
L 89.032168 102.24 
L 91.2 99.84 
L 92.089952 98.88 
L 94.581818 96.266667 
L 95.313022 95.52 
L 97.963636 92.886486 
L 98.715152 92.16 
L 101.345455 89.684211 
L 102.311688 88.8 
L 104.727273 86.646154 
L 106.119786 85.44 
L 108.109091 83.76 
L 110.158678 82.08 
L 111.490909 81.014634 
L 114.45 78.72 
L 114.872727 78.4 
L 118.254545 75.92 
L 119.043636 75.36 
L 121.636364 73.562791 
L 123.968652 72 
L 125.018182 71.312727 
L 128.4 69.174545 
L 129.276768 68.64 
L 131.781818 67.146667 
L 135.033566 65.28 
L 135.163636 65.206957 
L 138.545455 63.38087 
L 141.363636 61.92 
L 141.927273 61.634043 
L 145.309091 59.989787 
L 148.383471 58.56 
L 148.690909 58.42 
L 152.072727 56.95 
L 155.454545 55.55 
L 156.344498 55.2 
L 158.836364 54.24 
L 162.218182 53.005714 
L 165.6 51.84 
" style="fill:none;stroke:#ededed;stroke-width:1.5;"/>
    <path clip-path="url(#p70b74f54ad)" d="M 277.2 51.84 
L 280.581818 53.005714 
L 283.963636 54.24 
L 286.455502 55.2 
L 287.345455 55.55 
L 290.727273 56.95 
L 294.109091 58.42 
L 294.416529 58.56 
L 297.490909 59.989787 
L 300.872727 61.634043 
L 301.436364 61.92 
L 304.254545 63.38087 
L 307.636364 65.206957 
L 307.766434 65.28 
L 311.018182 67.146667 
L 313.523232 68.64 
L 314.4 69.174545 
L 317.781818 71.312727 
L 318.831348 72 
L 321.163636 73.562791 
L 323.756364 75.36 
L 324.545455 75.92 
L 327.927273 78.4 
L 328.35 78.72 
L 331.309091 81.014634 
L 332.641322 82.08 
L 334.690909 83.76 
L 336.680214 85.44 
L 338.072727 86.646154 
L 340.488312 88.8 
L 341.454545 89.684211 
L 344.084848 92.16 
L 344.836364 92.886486 
L 347.486978 95.52 
L 348.218182 96.266667 
L 350.710048 98.88 
L 351.6 99.84 
L 353.767832 102.24 
L 354.981818 103.623529 
L 356.672727 105.6 
L 358.363636 107.636364 
L 359.43592 108.96 
L 361.745455 111.9 
L 362.067532 112.32 
L 364.563636 115.68 
L 365.127273 116.464 
L 366.936152 119.04 
L 368.509091 121.357241 
L 369.200826 122.4 
L 371.352893 125.76 
L 371.890909 126.631111 
L 373.393939 129.12 
L 375.272727 132.350769 
L 375.346245 132.48 
L 377.18419 135.84 
L 378.654545 138.64 
L 378.94236 139.2 
L 380.597292 142.56 
L 382.036364 145.614545 
L 382.177273 145.92 
L 383.656818 149.28 
L 385.065909 152.64 
L 385.418182 153.524211 
L 386.384416 156 
L 387.626716 159.36 
L 388.8 162.72 
" style="fill:none;stroke:#ededed;stroke-width:1.5;"/>
   </g>
   <g id="LineCollection_12">
    <path clip-path="url(#p70b74f54ad)" d="M 142.497036 384.48 
L 141.927273 384.214286 
L 138.545455 382.568571 
L 135.687818 381.12 
L 135.163636 380.84875 
L 131.781818 379.02875 
L 129.511616 377.76 
L 128.4 377.125532 
L 125.018182 375.12383 
L 123.837461 374.4 
L 121.636364 373.021304 
L 118.578636 371.04 
L 118.254545 370.825333 
L 114.872727 368.510667 
L 113.697017 367.68 
L 111.490909 366.085909 
L 109.121074 364.32 
L 108.109091 363.548372 
L 104.814305 360.96 
L 104.727273 360.89 
L 101.345455 358.09 
L 100.770076 357.6 
L 97.963636 355.151707 
L 96.946806 354.24 
L 94.581818 352.0665 
L 93.324761 350.88 
L 91.2 348.823077 
L 89.888462 347.52 
L 87.818182 345.408947 
L 86.623977 344.16 
L 84.436364 341.81027 
L 83.518736 340.8 
L 81.054545 338.011667 
L 80.561364 337.44 
L 77.743182 334.08 
L 77.672727 333.993529 
L 75.067548 330.72 
L 74.290909 329.714545 
L 72.513533 327.36 
L 70.909091 325.168125 
L 70.07303 324 
L 67.743333 320.64 
L 67.527273 320.318 
L 65.533103 317.28 
L 64.145455 315.093103 
L 63.416925 313.92 
L 61.402224 310.56 
L 60.763636 309.455556 
L 59.486648 307.2 
L 57.65483 303.84 
L 57.381818 303.3192 
L 55.92384 300.48 
L 54.26744 297.12 
L 54 296.553913 
" style="fill:none;stroke:#dcdcdc;stroke-width:1.5;"/>
    <path clip-path="url(#p70b74f54ad)" d="M 388.8 296.553913 
L 388.53256 297.12 
L 386.87616 300.48 
L 385.418182 303.3192 
L 385.14517 303.84 
L 383.313352 307.2 
L 382.036364 309.455556 
L 381.397776 310.56 
L 379.383075 313.92 
L 378.654545 315.093103 
L 377.266897 317.28 
L 375.272727 320.318 
L 375.056667 320.64 
L 372.72697 324 
L 371.890909 325.168125 
L 370.286467 327.36 
L 368.509091 329.714545 
L 367.732452 330.72 
L 365.127273 333.993529 
L 365.056818 334.08 
L 362.238636 337.44 
L 361.745455 338.011667 
L 359.281264 340.8 
L 358.363636 341.81027 
L 356.176023 344.16 
L 354.981818 345.408947 
L 352.911538 347.52 
L 351.6 348.823077 
L 349.475239 350.88 
L 348.218182 352.0665 
L 345.853194 354.24 
L 344.836364 355.151707 
L 342.029924 357.6 
L 341.454545 358.09 
L 338.072727 360.89 
L 337.985695 360.96 
L 334.690909 363.548372 
L 333.678926 364.32 
L 331.309091 366.085909 
L 329.102983 367.68 
L 327.927273 368.510667 
L 324.545455 370.825333 
L 324.221364 371.04 
L 321.163636 373.021304 
L 318.962539 374.4 
L 317.781818 375.12383 
L 314.4 377.125532 
L 313.288384 377.76 
L 311.018182 379.02875 
L 307.636364 380.84875 
L 307.112182 381.12 
L 304.254545 382.568571 
L 300.872727 384.214286 
L 300.302964 384.48 
" style="fill:none;stroke:#dcdcdc;stroke-width:1.5;"/>
    <path clip-path="url(#p70b74f54ad)" d="M 54 139.766087 
L 54.26744 139.2 
L 55.92384 135.84 
L 57.381818 133.0008 
L 57.65483 132.48 
L 59.486648 129.12 
L 60.763636 126.864444 
L 61.402224 125.76 
L 63.416925 122.4 
L 64.145455 121.226897 
L 65.533103 119.04 
L 67.527273 116.002 
L 67.743333 115.68 
L 70.07303 112.32 
L 70.909091 111.151875 
L 72.513533 108.96 
L 74.290909 106.605455 
L 75.067548 105.6 
L 77.672727 102.326471 
L 77.743182 102.24 
L 80.561364 98.88 
L 81.054545 98.308333 
L 83.518736 95.52 
L 84.436364 94.50973 
L 86.623977 92.16 
L 87.818182 90.911053 
L 89.888462 88.8 
L 91.2 87.496923 
L 93.324761 85.44 
L 94.581818 84.2535 
L 96.946806 82.08 
L 97.963636 81.168293 
L 100.770076 78.72 
L 101.345455 78.23 
L 104.727273 75.43 
L 104.814305 75.36 
L 108.109091 72.771628 
L 109.121074 72 
L 111.490909 70.234091 
L 113.697017 68.64 
L 114.872727 67.809333 
L 118.254545 65.494667 
L 118.578636 65.28 
L 121.636364 63.298696 
L 123.837461 61.92 
L 125.018182 61.19617 
L 128.4 59.194468 
L 129.511616 58.56 
L 131.781818 57.29125 
L 135.163636 55.47125 
L 135.687818 55.2 
L 138.545455 53.751429 
L 141.927273 52.105714 
L 142.497036 51.84 
" style="fill:none;stroke:#dcdcdc;stroke-width:1.5;"/>
    <path clip-path="url(#p70b74f54ad)" d="M 300.302964 51.84 
L 300.872727 52.105714 
L 304.254545 53.751429 
L 307.112182 55.2 
L 307.636364 55.47125 
L 311.018182 57.29125 
L 313.288384 58.56 
L 314.4 59.194468 
L 317.781818 61.19617 
L 318.962539 61.92 
L 321.163636 63.298696 
L 324.221364 65.28 
L 324.545455 65.494667 
L 327.927273 67.809333 
L 329.102983 68.64 
L 331.309091 70.234091 
L 333.678926 72 
L 334.690909 72.771628 
L 337.985695 75.36 
L 338.072727 75.43 
L 341.454545 78.23 
L 342.029924 78.72 
L 344.836364 81.168293 
L 345.853194 82.08 
L 348.218182 84.2535 
L 349.475239 85.44 
L 351.6 87.496923 
L 352.911538 88.8 
L 354.981818 90.911053 
L 356.176023 92.16 
L 358.363636 94.50973 
L 359.281264 95.52 
L 361.745455 98.308333 
L 362.238636 98.88 
L 365.056818 102.24 
L 365.127273 102.326471 
L 367.732452 105.6 
L 368.509091 106.605455 
L 370.286467 108.96 
L 371.890909 111.151875 
L 372.72697 112.32 
L 375.056667 115.68 
L 375.272727 116.002 
L 377.266897 119.04 
L 378.654545 121.226897 
L 379.383075 122.4 
L 381.397776 125.76 
L 382.036364 126.864444 
L 383.313352 129.12 
L 385.14517 132.48 
L 385.418182 133.0008 
L 386.87616 135.84 
L 388.53256 139.2 
L 388.8 139.766087 
" style="fill:none;stroke:#dcdcdc;stroke-width:1.5;"/>
   </g>
   <g id="LineCollection_13">
    <path clip-path="url(#p70b74f54ad)" d="M 124.755799 384.48 
L 121.636364 382.645714 
L 119.128182 381.12 
L 118.254545 380.5775 
L 114.872727 378.4075 
L 113.89517 377.76 
L 111.490909 376.133617 
L 109.005785 374.4 
L 108.109091 373.76087 
L 104.727273 371.277391 
L 104.413247 371.04 
L 101.345455 368.669333 
L 100.100758 367.68 
L 97.963636 365.942727 
L 96.021376 364.32 
L 94.581818 363.089302 
L 92.156699 360.96 
L 91.2 360.1 
L 88.49021 357.6 
L 87.818182 356.964878 
L 85.007045 354.24 
L 84.436364 353.673 
L 81.693792 350.88 
L 81.054545 350.212308 
L 78.538312 347.52 
L 77.672727 346.569474 
L 75.529598 344.16 
L 74.290909 342.72973 
L 72.657645 340.8 
L 70.909091 338.676667 
L 69.913333 337.44 
L 67.527273 334.392 
L 67.28834 334.08 
L 64.788735 330.72 
L 64.145455 329.829091 
L 62.40058 327.36 
L 60.763636 324.97125 
L 60.111932 324 
L 57.927841 320.64 
L 57.381818 319.772 
L 55.846197 317.28 
L 54 314.18069 
" style="fill:none;stroke:#c7c7c7;stroke-width:1.5;"/>
    <path clip-path="url(#p70b74f54ad)" d="M 388.8 314.18069 
L 386.953803 317.28 
L 385.418182 319.772 
L 384.872159 320.64 
L 382.688068 324 
L 382.036364 324.97125 
L 380.39942 327.36 
L 378.654545 329.829091 
L 378.011265 330.72 
L 375.51166 334.08 
L 375.272727 334.392 
L 372.886667 337.44 
L 371.890909 338.676667 
L 370.142355 340.8 
L 368.509091 342.72973 
L 367.270402 344.16 
L 365.127273 346.569474 
L 364.261688 347.52 
L 361.745455 350.212308 
L 361.106208 350.88 
L 358.363636 353.673 
L 357.792955 354.24 
L 354.981818 356.964878 
L 354.30979 357.6 
L 351.6 360.1 
L 350.643301 360.96 
L 348.218182 363.089302 
L 346.778624 364.32 
L 344.836364 365.942727 
L 342.699242 367.68 
L 341.454545 368.669333 
L 338.386753 371.04 
L 338.072727 371.277391 
L 334.690909 373.76087 
L 333.794215 374.4 
L 331.309091 376.133617 
L 328.90483 377.76 
L 327.927273 378.4075 
L 324.545455 380.5775 
L 323.671818 381.12 
L 321.163636 382.645714 
L 318.044201 384.48 
" style="fill:none;stroke:#c7c7c7;stroke-width:1.5;"/>
    <path clip-path="url(#p70b74f54ad)" d="M 54 122.13931 
L 55.846197 119.04 
L 57.381818 116.548 
L 57.927841 115.68 
L 60.111932 112.32 
L 60.763636 111.34875 
L 62.40058 108.96 
L 64.145455 106.490909 
L 64.788735 105.6 
L 67.28834 102.24 
L 67.527273 101.928 
L 69.913333 98.88 
L 70.909091 97.643333 
L 72.657645 95.52 
L 74.290909 93.59027 
L 75.529598 92.16 
L 77.672727 89.750526 
L 78.538312 88.8 
L 81.054545 86.107692 
L 81.693792 85.44 
L 84.436364 82.647 
L 85.007045 82.08 
L 87.818182 79.355122 
L 88.49021 78.72 
L 91.2 76.22 
L 92.156699 75.36 
L 94.581818 73.230698 
L 96.021376 72 
L 97.963636 70.377273 
L 100.100758 68.64 
L 101.345455 67.650667 
L 104.413247 65.28 
L 104.727273 65.042609 
L 108.109091 62.55913 
L 109.005785 61.92 
L 111.490909 60.186383 
L 113.89517 58.56 
L 114.872727 57.9125 
L 118.254545 55.7425 
L 119.128182 55.2 
L 121.636364 53.674286 
L 124.755799 51.84 
" style="fill:none;stroke:#c7c7c7;stroke-width:1.5;"/>
    <path clip-path="url(#p70b74f54ad)" d="M 318.044201 51.84 
L 321.163636 53.674286 
L 323.671818 55.2 
L 324.545455 55.7425 
L 327.927273 57.9125 
L 328.90483 58.56 
L 331.309091 60.186383 
L 333.794215 61.92 
L 334.690909 62.55913 
L 338.072727 65.042609 
L 338.386753 65.28 
L 341.454545 67.650667 
L 342.699242 68.64 
L 344.836364 70.377273 
L 346.778624 72 
L 348.218182 73.230698 
L 350.643301 75.36 
L 351.6 76.22 
L 354.30979 78.72 
L 354.981818 79.355122 
L 357.792955 82.08 
L 358.363636 82.647 
L 361.106208 85.44 
L 361.745455 86.107692 
L 364.261688 88.8 
L 365.127273 89.750526 
L 367.270402 92.16 
L 368.509091 93.59027 
L 370.142355 95.52 
L 371.890909 97.643333 
L 372.886667 98.88 
L 375.272727 101.928 
L 375.51166 102.24 
L 378.011265 105.6 
L 378.654545 106.490909 
L 380.39942 108.96 
L 382.036364 111.34875 
L 382.688068 112.32 
L 384.872159 115.68 
L 385.418182 116.548 
L 386.953803 119.04 
L 388.8 122.13931 
" style="fill:none;stroke:#c7c7c7;stroke-width:1.5;"/>
   </g>
   <g id="LineCollection_14">
    <path clip-path="url(#p70b74f54ad)" d="M 109.81281 384.48 
L 108.109091 383.34 
L 104.888904 381.12 
L 104.727273 381.00625 
L 101.345455 378.55625 
L 100.276894 377.76 
L 97.963636 375.999574 
L 95.91855 374.4 
L 94.581818 373.331739 
L 91.789593 371.04 
L 91.2 370.545333 
L 87.872378 367.68 
L 87.818182 367.632273 
L 84.436364 364.577727 
L 84.157982 364.32 
L 81.054545 361.38 
L 80.621753 360.96 
L 77.672727 358.03 
L 77.25 357.6 
L 74.290909 354.516585 
L 74.031508 354.24 
L 70.957128 350.88 
L 70.909091 350.826154 
L 68.025152 347.52 
L 67.527273 346.934211 
L 65.220652 344.16 
L 64.145455 342.831892 
L 62.535493 340.8 
L 60.763636 338.501667 
L 59.962216 337.44 
L 57.496307 334.08 
L 57.381818 333.919412 
L 55.147403 330.72 
L 54 329.027273 
" style="fill:none;stroke:#afafaf;stroke-width:1.5;"/>
    <path clip-path="url(#p70b74f54ad)" d="M 388.8 329.027273 
L 387.652597 330.72 
L 385.418182 333.919412 
L 385.303693 334.08 
L 382.837784 337.44 
L 382.036364 338.501667 
L 380.264507 340.8 
L 378.654545 342.831892 
L 377.579348 344.16 
L 375.272727 346.934211 
L 374.774848 347.52 
L 371.890909 350.826154 
L 371.842872 350.88 
L 368.768492 354.24 
L 368.509091 354.516585 
L 365.55 357.6 
L 365.127273 358.03 
L 362.178247 360.96 
L 361.745455 361.38 
L 358.642018 364.32 
L 358.363636 364.577727 
L 354.981818 367.632273 
L 354.927622 367.68 
L 351.6 370.545333 
L 351.010407 371.04 
L 348.218182 373.331739 
L 346.88145 374.4 
L 344.836364 375.999574 
L 342.523106 377.76 
L 341.454545 378.55625 
L 338.072727 381.00625 
L 337.911096 381.12 
L 334.690909 383.34 
L 332.98719 384.48 
" style="fill:none;stroke:#afafaf;stroke-width:1.5;"/>
    <path clip-path="url(#p70b74f54ad)" d="M 54 107.292727 
L 55.147403 105.6 
L 57.381818 102.400588 
L 57.496307 102.24 
L 59.962216 98.88 
L 60.763636 97.818333 
L 62.535493 95.52 
L 64.145455 93.488108 
L 65.220652 92.16 
L 67.527273 89.385789 
L 68.025152 88.8 
L 70.909091 85.493846 
L 70.957128 85.44 
L 74.031508 82.08 
L 74.290909 81.803415 
L 77.25 78.72 
L 77.672727 78.29 
L 80.621753 75.36 
L 81.054545 74.94 
L 84.157982 72 
L 84.436364 71.742273 
L 87.818182 68.687727 
L 87.872378 68.64 
L 91.2 65.774667 
L 91.789593 65.28 
L 94.581818 62.988261 
L 95.91855 61.92 
L 97.963636 60.320426 
L 100.276894 58.56 
L 101.345455 57.76375 
L 104.727273 55.31375 
L 104.888904 55.2 
L 108.109091 52.98 
L 109.81281 51.84 
" style="fill:none;stroke:#afafaf;stroke-width:1.5;"/>
    <path clip-path="url(#p70b74f54ad)" d="M 332.98719 51.84 
L 334.690909 52.98 
L 337.911096 55.2 
L 338.072727 55.31375 
L 341.454545 57.76375 
L 342.523106 58.56 
L 344.836364 60.320426 
L 346.88145 61.92 
L 348.218182 62.988261 
L 351.010407 65.28 
L 351.6 65.774667 
L 354.927622 68.64 
L 354.981818 68.687727 
L 358.363636 71.742273 
L 358.642018 72 
L 361.745455 74.94 
L 362.178247 75.36 
L 365.127273 78.29 
L 365.55 78.72 
L 368.509091 81.803415 
L 368.768492 82.08 
L 371.842872 85.44 
L 371.890909 85.493846 
L 374.774848 88.8 
L 375.272727 89.385789 
L 377.579348 92.16 
L 378.654545 93.488108 
L 380.264507 95.52 
L 382.036364 97.818333 
L 382.837784 98.88 
L 385.303693 102.24 
L 385.418182 102.400588 
L 387.652597 105.6 
L 388.8 107.292727 
" style="fill:none;stroke:#afafaf;stroke-width:1.5;"/>
   </g>
   <g id="LineCollection_15">
    <path clip-path="url(#p70b74f54ad)" d="M 96.638329 384.48 
L 94.581818 382.937143 
L 92.223445 381.12 
L 91.2 380.315 
L 88.034965 377.76 
L 87.818182 377.581277 
L 84.436364 374.721702 
L 84.065188 374.4 
L 81.054545 371.733913 
L 80.28961 371.04 
L 77.672727 368.613333 
L 76.689641 367.68 
L 74.290909 365.350909 
L 73.253306 364.32 
L 70.909091 361.936744 
L 69.969697 360.96 
L 67.527273 358.36 
L 66.828854 357.6 
L 64.145455 354.60878 
L 63.821663 354.24 
L 60.94352 350.88 
L 60.763636 350.664615 
L 58.192045 347.52 
L 57.381818 346.503158 
L 55.552876 344.16 
L 54 342.116757 
" style="fill:none;stroke:#919191;stroke-width:1.5;"/>
    <path clip-path="url(#p70b74f54ad)" d="M 388.8 342.116757 
L 387.247124 344.16 
L 385.418182 346.503158 
L 384.607955 347.52 
L 382.036364 350.664615 
L 381.85648 350.88 
L 378.978337 354.24 
L 378.654545 354.60878 
L 375.971146 357.6 
L 375.272727 358.36 
L 372.830303 360.96 
L 371.890909 361.936744 
L 369.546694 364.32 
L 368.509091 365.350909 
L 366.110359 367.68 
L 365.127273 368.613333 
L 362.51039 371.04 
L 361.745455 371.733913 
L 358.734812 374.4 
L 358.363636 374.721702 
L 354.981818 377.581277 
L 354.765035 377.76 
L 351.6 380.315 
L 350.576555 381.12 
L 348.218182 382.937143 
L 346.161671 384.48 
" style="fill:none;stroke:#919191;stroke-width:1.5;"/>
    <path clip-path="url(#p70b74f54ad)" d="M 54 94.203243 
L 55.552876 92.16 
L 57.381818 89.816842 
L 58.192045 88.8 
L 60.763636 85.655385 
L 60.94352 85.44 
L 63.821663 82.08 
L 64.145455 81.71122 
L 66.828854 78.72 
L 67.527273 77.96 
L 69.969697 75.36 
L 70.909091 74.383256 
L 73.253306 72 
L 74.290909 70.969091 
L 76.689641 68.64 
L 77.672727 67.706667 
L 80.28961 65.28 
L 81.054545 64.586087 
L 84.065188 61.92 
L 84.436364 61.598298 
L 87.818182 58.738723 
L 88.034965 58.56 
L 91.2 56.005 
L 92.223445 55.2 
L 94.581818 53.382857 
L 96.638329 51.84 
" style="fill:none;stroke:#919191;stroke-width:1.5;"/>
    <path clip-path="url(#p70b74f54ad)" d="M 346.161671 51.84 
L 348.218182 53.382857 
L 350.576555 55.2 
L 351.6 56.005 
L 354.765035 58.56 
L 354.981818 58.738723 
L 358.363636 61.598298 
L 358.734812 61.92 
L 361.745455 64.586087 
L 362.51039 65.28 
L 365.127273 67.706667 
L 366.110359 68.64 
L 368.509091 70.969091 
L 369.546694 72 
L 371.890909 74.383256 
L 372.830303 75.36 
L 375.272727 77.96 
L 375.971146 78.72 
L 378.654545 81.71122 
L 378.978337 82.08 
L 381.85648 85.44 
L 382.036364 85.655385 
L 384.607955 88.8 
L 385.418182 89.816842 
L 387.247124 92.16 
L 388.8 94.203243 
" style="fill:none;stroke:#919191;stroke-width:1.5;"/>
   </g>
   <g id="LineCollection_16">
    <path clip-path="url(#p70b74f54ad)" d="M 84.721705 384.48 
L 84.436364 384.248571 
L 81.054545 381.437143 
L 80.682143 381.12 
L 77.672727 378.50375 
L 76.837104 377.76 
L 74.290909 375.445532 
L 73.166839 374.4 
L 70.909091 372.254348 
L 69.659697 371.04 
L 67.527273 368.921333 
L 66.30504 367.68 
L 64.145455 365.436818 
L 63.093133 364.32 
L 60.763636 361.790233 
L 60.015057 360.96 
L 57.381818 357.97 
L 57.062616 357.6 
L 54.232931 354.24 
L 54 353.9565 
" style="fill:none;stroke:#737373;stroke-width:1.5;"/>
    <path clip-path="url(#p70b74f54ad)" d="M 388.8 353.9565 
L 388.567069 354.24 
L 385.737384 357.6 
L 385.418182 357.97 
L 382.784943 360.96 
L 382.036364 361.790233 
L 379.706867 364.32 
L 378.654545 365.436818 
L 376.49496 367.68 
L 375.272727 368.921333 
L 373.140303 371.04 
L 371.890909 372.254348 
L 369.633161 374.4 
L 368.509091 375.445532 
L 365.962896 377.76 
L 365.127273 378.50375 
L 362.117857 381.12 
L 361.745455 381.437143 
L 358.363636 384.248571 
L 358.078295 384.48 
" style="fill:none;stroke:#737373;stroke-width:1.5;"/>
    <path clip-path="url(#p70b74f54ad)" d="M 54 82.3635 
L 54.232931 82.08 
L 57.062616 78.72 
L 57.381818 78.35 
L 60.015057 75.36 
L 60.763636 74.529767 
L 63.093133 72 
L 64.145455 70.883182 
L 66.30504 68.64 
L 67.527273 67.398667 
L 69.659697 65.28 
L 70.909091 64.065652 
L 73.166839 61.92 
L 74.290909 60.874468 
L 76.837104 58.56 
L 77.672727 57.81625 
L 80.682143 55.2 
L 81.054545 54.882857 
L 84.436364 52.071429 
L 84.721705 51.84 
" style="fill:none;stroke:#737373;stroke-width:1.5;"/>
    <path clip-path="url(#p70b74f54ad)" d="M 358.078295 51.84 
L 358.363636 52.071429 
L 361.745455 54.882857 
L 362.117857 55.2 
L 365.127273 57.81625 
L 365.962896 58.56 
L 368.509091 60.874468 
L 369.633161 61.92 
L 371.890909 64.065652 
L 373.140303 65.28 
L 375.272727 67.398667 
L 376.49496 68.64 
L 378.654545 70.883182 
L 379.706867 72 
L 382.036364 74.529767 
L 382.784943 75.36 
L 385.418182 78.35 
L 385.737384 78.72 
L 388.567069 82.08 
L 388.8 82.3635 
" style="fill:none;stroke:#737373;stroke-width:1.5;"/>
   </g>
   <g id="LineCollection_17">
    <path clip-path="url(#p70b74f54ad)" d="M 73.772107 384.48 
L 70.909091 381.925714 
L 70.026061 381.12 
L 67.527273 378.7925 
L 66.442885 377.76 
L 64.145455 375.525957 
L 63.012186 374.4 
L 60.763636 372.117391 
L 59.724432 371.04 
L 57.381818 368.557333 
L 56.570872 367.68 
L 54 364.835455 
" style="fill:none;stroke:#535353;stroke-width:1.5;"/>
    <path clip-path="url(#p70b74f54ad)" d="M 388.8 364.835455 
L 386.229128 367.68 
L 385.418182 368.557333 
L 383.075568 371.04 
L 382.036364 372.117391 
L 379.787814 374.4 
L 378.654545 375.525957 
L 376.357115 377.76 
L 375.272727 378.7925 
L 372.773939 381.12 
L 371.890909 381.925714 
L 369.027893 384.48 
" style="fill:none;stroke:#535353;stroke-width:1.5;"/>
    <path clip-path="url(#p70b74f54ad)" d="M 54 71.484545 
L 56.570872 68.64 
L 57.381818 67.762667 
L 59.724432 65.28 
L 60.763636 64.202609 
L 63.012186 61.92 
L 64.145455 60.794043 
L 66.442885 58.56 
L 67.527273 57.5275 
L 70.026061 55.2 
L 70.909091 54.394286 
L 73.772107 51.84 
" style="fill:none;stroke:#535353;stroke-width:1.5;"/>
    <path clip-path="url(#p70b74f54ad)" d="M 369.027893 51.84 
L 371.890909 54.394286 
L 372.773939 55.2 
L 375.272727 57.5275 
L 376.357115 58.56 
L 378.654545 60.794043 
L 379.787814 61.92 
L 382.036364 64.202609 
L 383.075568 65.28 
L 385.418182 67.762667 
L 386.229128 68.64 
L 388.8 71.484545 
" style="fill:none;stroke:#535353;stroke-width:1.5;"/>
   </g>
   <g id="LineCollection_18">
    <path clip-path="url(#p70b74f54ad)" d="M 63.57882 384.48 
L 60.763636 381.797143 
L 60.067898 381.12 
L 57.381818 378.45125 
L 56.700278 377.76 
L 54 374.962979 
" style="fill:none;stroke:#363636;stroke-width:1.5;"/>
    <path clip-path="url(#p70b74f54ad)" d="M 388.8 374.962979 
L 386.099722 377.76 
L 385.418182 378.45125 
L 382.732102 381.12 
L 382.036364 381.797143 
L 379.22118 384.48 
" style="fill:none;stroke:#363636;stroke-width:1.5;"/>
    <path clip-path="url(#p70b74f54ad)" d="M 54 61.357021 
L 56.700278 58.56 
L 57.381818 57.86875 
L 60.067898 55.2 
L 60.763636 54.522857 
L 63.57882 51.84 
" style="fill:none;stroke:#363636;stroke-width:1.5;"/>
    <path clip-path="url(#p70b74f54ad)" d="M 379.22118 51.84 
L 382.036364 54.522857 
L 382.732102 55.2 
L 385.418182 57.86875 
L 386.099722 58.56 
L 388.8 61.357021 
" style="fill:none;stroke:#363636;stroke-width:1.5;"/>
   </g>
   <g id="LineCollection_19"/>
   <g id="line2d_15">
    <path clip-path="url(#p70b74f54ad)" d="M 109.8 329.04 
L 137.7 284.688 
L 165.6 262.512 
L 182.34 245.88 
L 193.5 234.792 
L 204.66 223.704 
L 215.82 220.932 
L 221.4 218.16 
" style="fill:none;stroke:#0000ff;stroke-linecap:square;"/>
    <defs>
     <path d="M 0 2.5 
C 0.663008 2.5 1.29895 2.236584 1.767767 1.767767 
C 2.236584 1.29895 2.5 0.663008 2.5 0 
C 2.5 -0.663008 2.236584 -1.29895 1.767767 -1.767767 
C 1.29895 -2.236584 0.663008 -2.5 0 -2.5 
C -0.663008 -2.5 -1.29895 -2.236584 -1.767767 -1.767767 
C -2.236584 -1.29895 -2.5 -0.663008 -2.5 0 
C -2.5 0.663008 -2.236584 1.29895 -1.767767 1.767767 
C -1.29895 2.236584 -0.663008 2.5 0 2.5 
z
" id="m8dd3b185a4" style="stroke:#0000ff;"/>
    </defs>
    <g clip-path="url(#p70b74f54ad)">
     <use style="fill:#0000ff;stroke:#0000ff;" x="109.8" xlink:href="#m8dd3b185a4" y="329.04"/>
     <use style="fill:#0000ff;stroke:#0000ff;" x="137.7" xlink:href="#m8dd3b185a4" y="284.688"/>
     <use style="fill:#0000ff;stroke:#0000ff;" x="165.6" xlink:href="#m8dd3b185a4" y="262.512"/>
     <use style="fill:#0000ff;stroke:#0000ff;" x="182.34" xlink:href="#m8dd3b185a4" y="245.88"/>
     <use style="fill:#0000ff;stroke:#0000ff;" x="193.5" xlink:href="#m8dd3b185a4" y="234.792"/>
     <use style="fill:#0000ff;stroke:#0000ff;" x="204.66" xlink:href="#m8dd3b185a4" y="223.704"/>
     <use style="fill:#0000ff;stroke:#0000ff;" x="215.82" xlink:href="#m8dd3b185a4" y="220.932"/>
     <use style="fill:#0000ff;stroke:#0000ff;" x="221.4" xlink:href="#m8dd3b185a4" y="218.16"/>
    </g>
   </g>
   <g id="patch_3">
    <path d="M 54 384.48 
L 54 51.84 
" style="fill:none;stroke:#000000;stroke-linecap:square;stroke-linejoin:miter;stroke-width:0.8;"/>
   </g>
   <g id="patch_4">
    <path d="M 388.8 384.48 
L 388.8 51.84 
" style="fill:none;stroke:#000000;stroke-linecap:square;stroke-linejoin:miter;stroke-width:0.8;"/>
   </g>
   <g id="patch_5">
    <path d="M 54 384.48 
L 388.8 384.48 
" style="fill:none;stroke:#000000;stroke-linecap:square;stroke-linejoin:miter;stroke-width:0.8;"/>
   </g>
   <g id="patch_6">
    <path d="M 54 51.84 
L 388.8 51.84 
" style="fill:none;stroke:#000000;stroke-linecap:square;stroke-linejoin:miter;stroke-width:0.8;"/>
   </g>
   <g id="text_17">
    <!-- Start -->
    <g transform="translate(80.48625 329.04)scale(0.12 -0.12)">
     <defs>
      <path d="M 3425 4513 
L 3425 3897 
Q 3066 4069 2747 4153 
Q 2428 4238 2131 4238 
Q 1616 4238 1336 4038 
Q 1056 3838 1056 3469 
Q 1056 3159 1242 3001 
Q 1428 2844 1947 2747 
L 2328 2669 
Q 3034 2534 3370 2195 
Q 3706 1856 3706 1288 
Q 3706 609 3251 259 
Q 2797 -91 1919 -91 
Q 1588 -91 1214 -16 
Q 841 59 441 206 
L 441 856 
Q 825 641 1194 531 
Q 1563 422 1919 422 
Q 2459 422 2753 634 
Q 3047 847 3047 1241 
Q 3047 1584 2836 1778 
Q 2625 1972 2144 2069 
L 1759 2144 
Q 1053 2284 737 2584 
Q 422 2884 422 3419 
Q 422 4038 858 4394 
Q 1294 4750 2059 4750 
Q 2388 4750 2728 4690 
Q 3069 4631 3425 4513 
z
" id="DejaVuSans-53" transform="scale(0.015625)"/>
      <path d="M 1172 4494 
L 1172 3500 
L 2356 3500 
L 2356 3053 
L 1172 3053 
L 1172 1153 
Q 1172 725 1289 603 
Q 1406 481 1766 481 
L 2356 481 
L 2356 0 
L 1766 0 
Q 1100 0 847 248 
Q 594 497 594 1153 
L 594 3053 
L 172 3053 
L 172 3500 
L 594 3500 
L 594 4494 
L 1172 4494 
z
" id="DejaVuSans-74" transform="scale(0.015625)"/>
      <path d="M 2194 1759 
Q 1497 1759 1228 1600 
Q 959 1441 959 1056 
Q 959 750 1161 570 
Q 1363 391 1709 391 
Q 2188 391 2477 730 
Q 2766 1069 2766 1631 
L 2766 1759 
L 2194 1759 
z
M 3341 1997 
L 3341 0 
L 2766 0 
L 2766 531 
Q 2569 213 2275 61 
Q 1981 -91 1556 -91 
Q 1019 -91 701 211 
Q 384 513 384 1019 
Q 384 1609 779 1909 
Q 1175 2209 1959 2209 
L 2766 2209 
L 2766 2266 
Q 2766 2663 2505 2880 
Q 2244 3097 1772 3097 
Q 1472 3097 1187 3025 
Q 903 2953 641 2809 
L 641 3341 
Q 956 3463 1253 3523 
Q 1550 3584 1831 3584 
Q 2591 3584 2966 3190 
Q 3341 2797 3341 1997 
z
" id="DejaVuSans-61" transform="scale(0.015625)"/>
      <path d="M 2631 2963 
Q 2534 3019 2420 3045 
Q 2306 3072 2169 3072 
Q 1681 3072 1420 2755 
Q 1159 2438 1159 1844 
L 1159 0 
L 581 0 
L 581 3500 
L 1159 3500 
L 1159 2956 
Q 1341 3275 1631 3429 
Q 1922 3584 2338 3584 
Q 2397 3584 2469 3576 
Q 2541 3569 2628 3553 
L 2631 2963 
z
" id="DejaVuSans-72" transform="scale(0.015625)"/>
     </defs>
     <use xlink:href="#DejaVuSans-53"/>
     <use x="63.476562" xlink:href="#DejaVuSans-74"/>
     <use x="102.685547" xlink:href="#DejaVuSans-61"/>
     <use x="163.964844" xlink:href="#DejaVuSans-72"/>
     <use x="205.078125" xlink:href="#DejaVuSans-74"/>
    </g>
   </g>
   <g id="text_18">
    <!-- End -->
    <g transform="translate(221.4 218.16)scale(0.12 -0.12)">
     <defs>
      <path d="M 628 4666 
L 3578 4666 
L 3578 4134 
L 1259 4134 
L 1259 2753 
L 3481 2753 
L 3481 2222 
L 1259 2222 
L 1259 531 
L 3634 531 
L 3634 0 
L 628 0 
L 628 4666 
z
" id="DejaVuSans-45" transform="scale(0.015625)"/>
      <path d="M 3513 2113 
L 3513 0 
L 2938 0 
L 2938 2094 
Q 2938 2591 2744 2837 
Q 2550 3084 2163 3084 
Q 1697 3084 1428 2787 
Q 1159 2491 1159 1978 
L 1159 0 
L 581 0 
L 581 3500 
L 1159 3500 
L 1159 2956 
Q 1366 3272 1645 3428 
Q 1925 3584 2291 3584 
Q 2894 3584 3203 3211 
Q 3513 2838 3513 2113 
z
" id="DejaVuSans-6e" transform="scale(0.015625)"/>
      <path d="M 2906 2969 
L 2906 4863 
L 3481 4863 
L 3481 0 
L 2906 0 
L 2906 525 
Q 2725 213 2448 61 
Q 2172 -91 1784 -91 
Q 1150 -91 751 415 
Q 353 922 353 1747 
Q 353 2572 751 3078 
Q 1150 3584 1784 3584 
Q 2172 3584 2448 3432 
Q 2725 3281 2906 2969 
z
M 947 1747 
Q 947 1113 1208 752 
Q 1469 391 1925 391 
Q 2381 391 2643 752 
Q 2906 1113 2906 1747 
Q 2906 2381 2643 2742 
Q 2381 3103 1925 3103 
Q 1469 3103 1208 2742 
Q 947 2381 947 1747 
z
" id="DejaVuSans-64" transform="scale(0.015625)"/>
     </defs>
     <use xlink:href="#DejaVuSans-45"/>
     <use x="63.183594" xlink:href="#DejaVuSans-6e"/>
     <use x="126.5625" xlink:href="#DejaVuSans-64"/>
    </g>
   </g>
   <g id="text_19">
    <!-- Gradient Descent Path on Contour Plot -->
    <g transform="translate(105.250313 45.84)scale(0.12 -0.12)">
     <defs>
      <path d="M 3809 666 
L 3809 1919 
L 2778 1919 
L 2778 2438 
L 4434 2438 
L 4434 434 
Q 4069 175 3628 42 
Q 3188 -91 2688 -91 
Q 1594 -91 976 548 
Q 359 1188 359 2328 
Q 359 3472 976 4111 
Q 1594 4750 2688 4750 
Q 3144 4750 3555 4637 
Q 3966 4525 4313 4306 
L 4313 3634 
Q 3963 3931 3569 4081 
Q 3175 4231 2741 4231 
Q 1884 4231 1454 3753 
Q 1025 3275 1025 2328 
Q 1025 1384 1454 906 
Q 1884 428 2741 428 
Q 3075 428 3337 486 
Q 3600 544 3809 666 
z
" id="DejaVuSans-47" transform="scale(0.015625)"/>
      <path d="M 603 3500 
L 1178 3500 
L 1178 0 
L 603 0 
L 603 3500 
z
M 603 4863 
L 1178 4863 
L 1178 4134 
L 603 4134 
L 603 4863 
z
" id="DejaVuSans-69" transform="scale(0.015625)"/>
      <path d="M 3597 1894 
L 3597 1613 
L 953 1613 
Q 991 1019 1311 708 
Q 1631 397 2203 397 
Q 2534 397 2845 478 
Q 3156 559 3463 722 
L 3463 178 
Q 3153 47 2828 -22 
Q 2503 -91 2169 -91 
Q 1331 -91 842 396 
Q 353 884 353 1716 
Q 353 2575 817 3079 
Q 1281 3584 2069 3584 
Q 2775 3584 3186 3129 
Q 3597 2675 3597 1894 
z
M 3022 2063 
Q 3016 2534 2758 2815 
Q 2500 3097 2075 3097 
Q 1594 3097 1305 2825 
Q 1016 2553 972 2059 
L 3022 2063 
z
" id="DejaVuSans-65" transform="scale(0.015625)"/>
      <path id="DejaVuSans-20" transform="scale(0.015625)"/>
      <path d="M 1259 4147 
L 1259 519 
L 2022 519 
Q 2988 519 3436 956 
Q 3884 1394 3884 2338 
Q 3884 3275 3436 3711 
Q 2988 4147 2022 4147 
L 1259 4147 
z
M 628 4666 
L 1925 4666 
Q 3281 4666 3915 4102 
Q 4550 3538 4550 2338 
Q 4550 1131 3912 565 
Q 3275 0 1925 0 
L 628 0 
L 628 4666 
z
" id="DejaVuSans-44" transform="scale(0.015625)"/>
      <path d="M 2834 3397 
L 2834 2853 
Q 2591 2978 2328 3040 
Q 2066 3103 1784 3103 
Q 1356 3103 1142 2972 
Q 928 2841 928 2578 
Q 928 2378 1081 2264 
Q 1234 2150 1697 2047 
L 1894 2003 
Q 2506 1872 2764 1633 
Q 3022 1394 3022 966 
Q 3022 478 2636 193 
Q 2250 -91 1575 -91 
Q 1294 -91 989 -36 
Q 684 19 347 128 
L 347 722 
Q 666 556 975 473 
Q 1284 391 1588 391 
Q 1994 391 2212 530 
Q 2431 669 2431 922 
Q 2431 1156 2273 1281 
Q 2116 1406 1581 1522 
L 1381 1569 
Q 847 1681 609 1914 
Q 372 2147 372 2553 
Q 372 3047 722 3315 
Q 1072 3584 1716 3584 
Q 2034 3584 2315 3537 
Q 2597 3491 2834 3397 
z
" id="DejaVuSans-73" transform="scale(0.015625)"/>
      <path d="M 3122 3366 
L 3122 2828 
Q 2878 2963 2633 3030 
Q 2388 3097 2138 3097 
Q 1578 3097 1268 2742 
Q 959 2388 959 1747 
Q 959 1106 1268 751 
Q 1578 397 2138 397 
Q 2388 397 2633 464 
Q 2878 531 3122 666 
L 3122 134 
Q 2881 22 2623 -34 
Q 2366 -91 2075 -91 
Q 1284 -91 818 406 
Q 353 903 353 1747 
Q 353 2603 823 3093 
Q 1294 3584 2113 3584 
Q 2378 3584 2631 3529 
Q 2884 3475 3122 3366 
z
" id="DejaVuSans-63" transform="scale(0.015625)"/>
      <path d="M 1259 4147 
L 1259 2394 
L 2053 2394 
Q 2494 2394 2734 2622 
Q 2975 2850 2975 3272 
Q 2975 3691 2734 3919 
Q 2494 4147 2053 4147 
L 1259 4147 
z
M 628 4666 
L 2053 4666 
Q 2838 4666 3239 4311 
Q 3641 3956 3641 3272 
Q 3641 2581 3239 2228 
Q 2838 1875 2053 1875 
L 1259 1875 
L 1259 0 
L 628 0 
L 628 4666 
z
" id="DejaVuSans-50" transform="scale(0.015625)"/>
      <path d="M 3513 2113 
L 3513 0 
L 2938 0 
L 2938 2094 
Q 2938 2591 2744 2837 
Q 2550 3084 2163 3084 
Q 1697 3084 1428 2787 
Q 1159 2491 1159 1978 
L 1159 0 
L 581 0 
L 581 4863 
L 1159 4863 
L 1159 2956 
Q 1366 3272 1645 3428 
Q 1925 3584 2291 3584 
Q 2894 3584 3203 3211 
Q 3513 2838 3513 2113 
z
" id="DejaVuSans-68" transform="scale(0.015625)"/>
      <path d="M 1959 3097 
Q 1497 3097 1228 2736 
Q 959 2375 959 1747 
Q 959 1119 1226 758 
Q 1494 397 1959 397 
Q 2419 397 2687 759 
Q 2956 1122 2956 1747 
Q 2956 2369 2687 2733 
Q 2419 3097 1959 3097 
z
M 1959 3584 
Q 2709 3584 3137 3096 
Q 3566 2609 3566 1747 
Q 3566 888 3137 398 
Q 2709 -91 1959 -91 
Q 1206 -91 779 398 
Q 353 888 353 1747 
Q 353 2609 779 3096 
Q 1206 3584 1959 3584 
z
" id="DejaVuSans-6f" transform="scale(0.015625)"/>
      <path d="M 4122 4306 
L 4122 3641 
Q 3803 3938 3442 4084 
Q 3081 4231 2675 4231 
Q 1875 4231 1450 3742 
Q 1025 3253 1025 2328 
Q 1025 1406 1450 917 
Q 1875 428 2675 428 
Q 3081 428 3442 575 
Q 3803 722 4122 1019 
L 4122 359 
Q 3791 134 3420 21 
Q 3050 -91 2638 -91 
Q 1578 -91 968 557 
Q 359 1206 359 2328 
Q 359 3453 968 4101 
Q 1578 4750 2638 4750 
Q 3056 4750 3426 4639 
Q 3797 4528 4122 4306 
z
" id="DejaVuSans-43" transform="scale(0.015625)"/>
      <path d="M 544 1381 
L 544 3500 
L 1119 3500 
L 1119 1403 
Q 1119 906 1312 657 
Q 1506 409 1894 409 
Q 2359 409 2629 706 
Q 2900 1003 2900 1516 
L 2900 3500 
L 3475 3500 
L 3475 0 
L 2900 0 
L 2900 538 
Q 2691 219 2414 64 
Q 2138 -91 1772 -91 
Q 1169 -91 856 284 
Q 544 659 544 1381 
z
M 1991 3584 
L 1991 3584 
z
" id="DejaVuSans-75" transform="scale(0.015625)"/>
      <path d="M 603 4863 
L 1178 4863 
L 1178 0 
L 603 0 
L 603 4863 
z
" id="DejaVuSans-6c" transform="scale(0.015625)"/>
     </defs>
     <use xlink:href="#DejaVuSans-47"/>
     <use x="77.490234" xlink:href="#DejaVuSans-72"/>
     <use x="118.603516" xlink:href="#DejaVuSans-61"/>
     <use x="179.882812" xlink:href="#DejaVuSans-64"/>
     <use x="243.359375" xlink:href="#DejaVuSans-69"/>
     <use x="271.142578" xlink:href="#DejaVuSans-65"/>
     <use x="332.666016" xlink:href="#DejaVuSans-6e"/>
     <use x="396.044922" xlink:href="#DejaVuSans-74"/>
     <use x="435.253906" xlink:href="#DejaVuSans-20"/>
     <use x="467.041016" xlink:href="#DejaVuSans-44"/>
     <use x="544.042969" xlink:href="#DejaVuSans-65"/>
     <use x="605.566406" xlink:href="#DejaVuSans-73"/>
     <use x="657.666016" xlink:href="#DejaVuSans-63"/>
     <use x="712.646484" xlink:href="#DejaVuSans-65"/>
     <use x="774.169922" xlink:href="#DejaVuSans-6e"/>
     <use x="837.548828" xlink:href="#DejaVuSans-74"/>
     <use x="876.757812" xlink:href="#DejaVuSans-20"/>
     <use x="908.544922" xlink:href="#DejaVuSans-50"/>
     <use x="964.347656" xlink:href="#DejaVuSans-61"/>
     <use x="1025.626953" xlink:href="#DejaVuSans-74"/>
     <use x="1064.835938" xlink:href="#DejaVuSans-68"/>
     <use x="1128.214844" xlink:href="#DejaVuSans-20"/>
     <use x="1160.001953" xlink:href="#DejaVuSans-6f"/>
     <use x="1221.183594" xlink:href="#DejaVuSans-6e"/>
     <use x="1284.5625" xlink:href="#DejaVuSans-20"/>
     <use x="1316.349609" xlink:href="#DejaVuSans-43"/>
     <use x="1386.173828" xlink:href="#DejaVuSans-6f"/>
     <use x="1447.355469" xlink:href="#DejaVuSans-6e"/>
     <use x="1510.734375" xlink:href="#DejaVuSans-74"/>
     <use x="1549.943359" xlink:href="#DejaVuSans-6f"/>
     <use x="1611.125" xlink:href="#DejaVuSans-75"/>
     <use x="1674.503906" xlink:href="#DejaVuSans-72"/>
     <use x="1715.617188" xlink:href="#DejaVuSans-20"/>
     <use x="1747.404297" xlink:href="#DejaVuSans-50"/>
     <use x="1807.707031" xlink:href="#DejaVuSans-6c"/>
     <use x="1835.490234" xlink:href="#DejaVuSans-6f"/>
     <use x="1896.671875" xlink:href="#DejaVuSans-74"/>
    </g>
   </g>
  </g>
 </g>
 <defs>
  <clipPath id="p70b74f54ad">
   <rect height="332.64" width="334.8" x="54" y="51.84"/>
  </clipPath>
 </defs>
</svg>
